<?xml version="1.0" encoding="utf-8"?>
<!-- Generator: Adobe Illustrator 26.5.3, SVG Export Plug-In . SVG Version: 6.00 Build 0)  -->
<svg version="1.1" id="Layer_1" xmlns="http://www.w3.org/2000/svg" xmlns:xlink="http://www.w3.org/1999/xlink" x="0px" y="0px"
	 viewBox="0 0 150 150" style="enable-background:new 0 0 150 150;" xml:space="preserve">
<style type="text/css">
	.st0{fill:#E7DDC5;}
	.st1{fill:none;stroke:#B3822C;stroke-width:2;}
	.st2{fill:none;stroke:#0B3D3D;stroke-width:3;}
	.st3{fill:#0B3D3D;}
	.st4{fill:#0B3D3D;stroke:#0B3D3D;stroke-width:3;}
</style>
<rect class="st0" width="150" height="150"/>
<g>
	<path class="st1" d="M44.8,32"/>
</g>
<polyline class="st2" points="89.1,25.5 55.4,64.7 27.6,64.7 27.6,64.7 60.9,25.5 89,25.5 "/>
<g>
	<g>
		<path class="st3" d="M47.5,127.9h-9.7v-1.2c0.3,0,0.6-0.1,1.1-0.1c0.5,0,0.8-0.1,1-0.2c0.3-0.1,0.6-0.3,0.7-0.6
			c0.2-0.3,0.2-0.6,0.2-1v-8.3H30v8.1c0,0.4,0.1,0.7,0.2,1c0.1,0.3,0.4,0.5,0.7,0.7c0.2,0.1,0.5,0.2,1,0.3c0.5,0.1,0.9,0.2,1.1,0.2
			v1.2h-9.7v-1.2c0.3,0,0.6-0.1,1.1-0.1s0.8-0.1,1-0.2c0.3-0.1,0.6-0.3,0.7-0.6s0.2-0.6,0.2-1V108c0-0.4-0.1-0.7-0.2-1
			c-0.1-0.3-0.4-0.5-0.7-0.7c-0.3-0.1-0.7-0.3-1.1-0.4c-0.4-0.1-0.8-0.2-1.1-0.2v-1.2h9.7v1.2c-0.3,0-0.7,0.1-1.1,0.1
			c-0.4,0.1-0.8,0.2-1,0.2c-0.4,0.1-0.6,0.4-0.7,0.7c-0.1,0.3-0.2,0.6-0.2,1v7.2h11V108c0-0.4-0.1-0.7-0.2-1s-0.4-0.5-0.7-0.7
			c-0.3-0.1-0.7-0.3-1.1-0.4c-0.4-0.1-0.8-0.2-1.1-0.2v-1.2h9.7v1.2c-0.3,0-0.7,0.1-1.1,0.1c-0.4,0.1-0.8,0.2-1,0.2
			c-0.4,0.1-0.6,0.4-0.7,0.7c-0.1,0.3-0.2,0.6-0.2,1v16.8c0,0.4,0.1,0.7,0.2,1c0.1,0.3,0.4,0.5,0.7,0.7c0.2,0.1,0.5,0.2,1,0.3
			c0.5,0.1,0.9,0.2,1.1,0.2V127.9z"/>
		<path class="st3" d="M66.2,119.7c0,1.1-0.2,2.3-0.5,3.4c-0.4,1.1-0.9,2-1.5,2.8c-0.8,0.9-1.6,1.5-2.6,2c-1,0.4-2.1,0.6-3.4,0.6
			c-1,0-2-0.2-2.9-0.6c-0.9-0.4-1.8-1-2.5-1.7c-0.7-0.7-1.3-1.6-1.7-2.7c-0.4-1.1-0.6-2.2-0.6-3.6c0-2.5,0.7-4.6,2.2-6.2
			c1.5-1.6,3.4-2.4,5.8-2.4c2.3,0,4.1,0.8,5.6,2.3C65.5,115.1,66.2,117.1,66.2,119.7z M62.8,119.7c0-0.8-0.1-1.7-0.2-2.6
			c-0.2-0.9-0.4-1.7-0.7-2.3c-0.4-0.7-0.8-1.2-1.4-1.6c-0.6-0.4-1.3-0.6-2.1-0.6c-0.8,0-1.6,0.2-2.2,0.6c-0.6,0.4-1.1,1-1.5,1.7
			c-0.4,0.7-0.6,1.4-0.7,2.3c-0.1,0.9-0.2,1.7-0.2,2.5c0,1.1,0.1,2,0.3,2.9c0.2,0.9,0.4,1.7,0.8,2.4c0.4,0.7,0.8,1.3,1.4,1.7
			s1.3,0.6,2.1,0.6c1.4,0,2.5-0.7,3.3-2C62.4,123.9,62.8,122,62.8,119.7z"/>
		<path class="st3" d="M96.3,127.9h-7.9v-1.1c0.3,0,0.5,0,0.8-0.1c0.3,0,0.5-0.1,0.7-0.1c0.3-0.1,0.5-0.3,0.7-0.5
			c0.1-0.2,0.2-0.6,0.2-1v-8.4c0-1.1-0.3-2-0.8-2.6s-1.2-0.9-1.9-0.9c-0.5,0-1,0.1-1.5,0.2c-0.5,0.2-0.9,0.4-1.3,0.7
			c-0.3,0.2-0.6,0.5-0.8,0.8c-0.2,0.3-0.4,0.5-0.5,0.7v9.4c0,0.4,0.1,0.7,0.2,0.9s0.4,0.4,0.7,0.6c0.3,0.1,0.5,0.2,0.7,0.2
			c0.2,0,0.5,0.1,0.8,0.1v1.1h-7.7v-1.1c0.3,0,0.5,0,0.7-0.1c0.2,0,0.5-0.1,0.6-0.1c0.3-0.1,0.5-0.3,0.7-0.5c0.1-0.2,0.2-0.6,0.2-1
			v-8.4c0-1.1-0.3-2-0.8-2.6c-0.5-0.6-1.2-0.9-2-0.9c-0.5,0-1,0.1-1.5,0.3c-0.5,0.2-0.9,0.4-1.3,0.7c-0.3,0.2-0.6,0.5-0.8,0.8
			c-0.2,0.3-0.4,0.5-0.5,0.7v9.3c0,0.4,0.1,0.7,0.2,0.9c0.2,0.3,0.4,0.4,0.7,0.6c0.2,0.1,0.5,0.2,0.7,0.2s0.5,0.1,0.8,0.1v1.1h-7.9
			v-1.1c0.3,0,0.5,0,0.8-0.1c0.3,0,0.5-0.1,0.7-0.1c0.3-0.1,0.5-0.3,0.7-0.5s0.2-0.6,0.2-1v-10.1c0-0.3-0.1-0.7-0.2-0.9
			c-0.2-0.3-0.4-0.5-0.7-0.7c-0.2-0.1-0.5-0.2-0.8-0.3c-0.3-0.1-0.6-0.1-1-0.2v-1.1l5.4-0.4l0.2,0.2v2.3h0.1c0.3-0.3,0.6-0.6,1-1
			c0.4-0.4,0.8-0.7,1.1-0.9c0.4-0.3,0.9-0.5,1.4-0.7s1.2-0.3,1.9-0.3c1.1,0,2,0.3,2.7,0.8c0.8,0.6,1.3,1.2,1.6,2
			c0.4-0.4,0.7-0.7,1-1c0.3-0.3,0.7-0.6,1.2-0.9c0.4-0.3,0.9-0.5,1.5-0.7c0.6-0.2,1.2-0.3,1.9-0.3c1.4,0,2.5,0.4,3.3,1.3
			c0.8,0.9,1.2,2.3,1.2,4.1v8.2c0,0.4,0.1,0.7,0.2,0.9c0.1,0.2,0.4,0.4,0.7,0.6c0.3,0.1,0.5,0.2,0.7,0.2c0.2,0,0.5,0.1,0.8,0.1
			V127.9z"/>
		<path class="st3" d="M112.6,124.1c-0.7,1.3-1.6,2.3-2.7,3.1c-1.1,0.8-2.4,1.2-3.9,1.2c-1.3,0-2.4-0.2-3.4-0.7s-1.8-1.1-2.4-1.9
			s-1.1-1.7-1.4-2.8c-0.3-1.1-0.5-2.2-0.5-3.3c0-1.1,0.2-2.1,0.5-3.1c0.3-1,0.8-1.9,1.5-2.7c0.6-0.8,1.4-1.4,2.3-1.9
			c0.9-0.5,2-0.7,3.1-0.7c1.2,0,2.2,0.2,3,0.6s1.5,0.9,2.1,1.5c0.5,0.6,0.9,1.3,1.1,2.2c0.2,0.8,0.4,1.7,0.4,2.7v1.1h-10.7
			c0,1.1,0.1,2,0.3,2.9c0.2,0.9,0.5,1.6,1,2.3c0.4,0.6,1,1.1,1.7,1.5c0.7,0.4,1.5,0.6,2.5,0.6c1,0,1.8-0.2,2.5-0.7
			c0.7-0.5,1.4-1.3,2-2.5L112.6,124.1z M109,117.9c0-0.6-0.1-1.3-0.2-2c-0.1-0.7-0.3-1.3-0.5-1.8c-0.3-0.5-0.6-0.9-1-1.2
			c-0.4-0.3-1-0.5-1.7-0.5c-1.2,0-2.1,0.5-2.9,1.4c-0.8,1-1.2,2.3-1.2,4H109z"/>
		<path class="st3" d="M125.2,120c0.4,0.4,0.8,0.8,1,1.4s0.4,1.1,0.4,1.9c0,1.5-0.6,2.7-1.7,3.7c-1.1,1-2.6,1.4-4.4,1.4
			c-0.9,0-1.8-0.2-2.6-0.5c-0.8-0.3-1.4-0.7-1.7-0.9l-0.3,1.1h-1.2l-0.2-5.6h1.1c0.1,0.4,0.3,0.9,0.6,1.5s0.6,1.1,1,1.6
			c0.4,0.5,0.9,0.9,1.5,1.2c0.6,0.3,1.3,0.5,2,0.5c1.1,0,1.9-0.2,2.4-0.7c0.6-0.5,0.9-1.2,0.9-2.1c0-0.5-0.1-0.9-0.3-1.2
			s-0.4-0.6-0.8-0.9c-0.4-0.3-0.8-0.5-1.3-0.7c-0.5-0.2-1.1-0.4-1.8-0.6c-0.5-0.2-1.1-0.4-1.7-0.6c-0.6-0.3-1.2-0.6-1.6-0.9
			c-0.5-0.4-0.9-0.9-1.2-1.4c-0.3-0.6-0.5-1.2-0.5-2c0-1.3,0.5-2.4,1.5-3.4s2.3-1.4,4-1.4c0.6,0,1.3,0.1,1.9,0.2
			c0.7,0.2,1.2,0.4,1.6,0.6l0.4-0.9h1.2l0.2,5.2h-1.1c-0.2-1.2-0.7-2.1-1.5-2.8c-0.8-0.7-1.7-1.1-2.8-1.1c-0.9,0-1.6,0.2-2.1,0.7
			c-0.5,0.5-0.8,1-0.8,1.6c0,0.5,0.1,0.9,0.3,1.2s0.4,0.6,0.8,0.8c0.3,0.2,0.7,0.4,1.2,0.6c0.5,0.2,1.1,0.4,1.8,0.6
			c0.7,0.2,1.4,0.5,2,0.8C124.3,119.3,124.8,119.6,125.2,120z"/>
	</g>
	<path class="st3" d="M37.1,92.2l-0.3,4.6h-12V96c0.2,0,0.4,0,0.8-0.1s0.6-0.1,0.7-0.1c0.2-0.1,0.4-0.2,0.5-0.4
		c0.1-0.2,0.1-0.4,0.1-0.7v-11c0-0.2,0-0.5-0.1-0.6c-0.1-0.2-0.2-0.3-0.5-0.5c-0.2-0.1-0.4-0.2-0.7-0.3c-0.3-0.1-0.5-0.1-0.7-0.1
		v-0.8h6.5v0.8c-0.2,0-0.5,0-0.8,0.1c-0.3,0.1-0.6,0.1-0.7,0.2c-0.2,0.1-0.4,0.2-0.5,0.4c-0.1,0.2-0.1,0.4-0.1,0.7v10.3
		c0,0.5,0,0.8,0.1,1.1c0,0.3,0.2,0.5,0.3,0.6c0.2,0.1,0.4,0.2,0.7,0.3s0.8,0.1,1.4,0.1c0.3,0,0.5,0,0.8,0c0.3,0,0.6,0,0.8-0.1
		c0.3,0,0.5-0.1,0.7-0.2c0.2-0.1,0.4-0.2,0.5-0.3c0.3-0.3,0.6-0.8,1-1.5c0.4-0.7,0.7-1.2,0.8-1.6H37.1z"/>
	<path class="st3" d="M48.3,91.4c0,0.7-0.1,1.5-0.4,2.2c-0.2,0.7-0.6,1.3-1,1.8c-0.5,0.6-1.1,1-1.7,1.3c-0.7,0.3-1.4,0.4-2.2,0.4
		c-0.7,0-1.3-0.1-1.9-0.4c-0.6-0.3-1.2-0.6-1.6-1.1c-0.5-0.5-0.8-1.1-1.1-1.8c-0.3-0.7-0.4-1.5-0.4-2.3c0-1.7,0.5-3,1.5-4.1
		c1-1.1,2.2-1.6,3.8-1.6c1.5,0,2.7,0.5,3.7,1.5C47.8,88.3,48.3,89.7,48.3,91.4z M46.1,91.4c0-0.5-0.1-1.1-0.2-1.7
		c-0.1-0.6-0.3-1.1-0.5-1.5c-0.2-0.4-0.5-0.8-0.9-1.1c-0.4-0.3-0.8-0.4-1.4-0.4c-0.6,0-1,0.1-1.4,0.4c-0.4,0.3-0.7,0.6-1,1.1
		c-0.2,0.4-0.4,0.9-0.5,1.5c-0.1,0.6-0.1,1.1-0.1,1.6c0,0.7,0.1,1.3,0.2,1.9c0.1,0.6,0.3,1.1,0.5,1.6c0.2,0.5,0.6,0.8,0.9,1.1
		c0.4,0.3,0.8,0.4,1.4,0.4c0.9,0,1.6-0.4,2.1-1.3C45.8,94.1,46.1,92.9,46.1,91.4z"/>
	<path class="st3" d="M61.6,96.8h-5.2v-0.7c0.2,0,0.3,0,0.5,0s0.4,0,0.5-0.1c0.2-0.1,0.4-0.2,0.4-0.3C58,95.5,58,95.2,58,95v-5.5
		c0-0.8-0.2-1.3-0.5-1.8c-0.4-0.4-0.8-0.6-1.3-0.6c-0.4,0-0.7,0.1-1.1,0.2c-0.3,0.1-0.6,0.3-0.8,0.4c-0.2,0.2-0.4,0.3-0.6,0.5
		c-0.1,0.2-0.2,0.3-0.3,0.5v6.1c0,0.2,0.1,0.4,0.2,0.6c0.1,0.2,0.3,0.3,0.5,0.4c0.2,0.1,0.3,0.1,0.5,0.2c0.2,0,0.4,0.1,0.5,0.1v0.7
		h-5.2v-0.7c0.2,0,0.3,0,0.5,0s0.3,0,0.5-0.1c0.2-0.1,0.4-0.2,0.4-0.3c0.1-0.2,0.1-0.4,0.1-0.6v-6.6c0-0.2-0.1-0.5-0.2-0.7
		c-0.1-0.2-0.3-0.4-0.4-0.5c-0.1-0.1-0.3-0.1-0.5-0.2c-0.2,0-0.4-0.1-0.6-0.1v-0.7l3.5-0.2l0.2,0.2v1.5h0.1c0.2-0.2,0.4-0.4,0.6-0.6
		c0.3-0.2,0.5-0.4,0.7-0.6c0.3-0.2,0.6-0.3,1-0.4s0.8-0.2,1.2-0.2c1,0,1.8,0.3,2.3,1c0.5,0.6,0.7,1.5,0.7,2.5v5.5
		c0,0.3,0,0.5,0.1,0.6s0.2,0.3,0.4,0.4c0.2,0.1,0.3,0.1,0.4,0.2s0.3,0.1,0.5,0.1V96.8z"/>
	<path class="st3" d="M72.1,95.7c0.3,0.3,0.5,0.6,0.7,0.9c0.2,0.3,0.2,0.8,0.2,1.3c0,0.5-0.1,1-0.3,1.4c-0.2,0.5-0.6,0.8-1,1.2
		c-0.5,0.3-1.1,0.6-1.7,0.8c-0.7,0.2-1.5,0.3-2.5,0.3c-1.6,0-2.8-0.2-3.6-0.7s-1.2-1.2-1.2-2.1c0-0.7,0.3-1.3,0.9-1.7
		c0.6-0.4,1.3-0.7,2.2-0.7v-0.2c-0.2-0.1-0.4-0.1-0.7-0.2c-0.2-0.1-0.4-0.2-0.6-0.3c-0.2-0.2-0.3-0.3-0.5-0.5
		c-0.1-0.2-0.2-0.5-0.2-0.8c0-0.4,0.1-0.7,0.4-1.1c0.3-0.3,0.7-0.6,1.2-0.8v-0.2c-0.7-0.3-1.2-0.7-1.6-1.2s-0.6-1.1-0.6-1.8
		c0-1,0.4-1.8,1.1-2.5c0.8-0.6,1.7-1,2.9-1c0.3,0,0.6,0,1,0.1c0.3,0.1,0.6,0.1,1,0.2h3.7v1h-2.5v0.1c0.3,0.3,0.5,0.7,0.6,1
		c0.1,0.4,0.2,0.7,0.2,1.1c0,0.9-0.4,1.7-1.1,2.4c-0.8,0.6-1.6,1-2.7,1h-1.3c-0.2,0.1-0.3,0.2-0.5,0.3c-0.2,0.2-0.3,0.4-0.3,0.6
		c0,0.3,0.1,0.5,0.2,0.6c0.2,0.1,0.3,0.2,0.6,0.3c0.2,0.1,0.5,0.1,0.7,0.1c0.3,0,0.6,0,0.9,0c0.3,0,0.8,0,1.3,0.1s0.9,0.1,1.2,0.1
		c0.3,0,0.7,0.1,1,0.2C71.5,95.2,71.8,95.4,72.1,95.7z M71.2,98.3c0-0.4-0.1-0.7-0.3-1c-0.2-0.3-0.5-0.4-0.9-0.5
		c-0.2,0-0.6-0.1-1.2-0.1c-0.6,0-1.4-0.1-2.2-0.1c-0.8,0.2-1.3,0.4-1.7,0.8c-0.3,0.4-0.5,0.8-0.5,1.4c0,0.3,0.1,0.5,0.2,0.7
		c0.1,0.2,0.3,0.4,0.6,0.6c0.3,0.2,0.6,0.3,1,0.5c0.4,0.1,0.9,0.2,1.6,0.2c1.1,0,1.9-0.2,2.5-0.6C70.9,99.8,71.2,99.1,71.2,98.3z
		 M69.1,89.4c0-0.8-0.2-1.5-0.5-2c-0.3-0.5-0.8-0.8-1.4-0.8c-0.3,0-0.6,0.1-0.9,0.2c-0.2,0.1-0.4,0.3-0.6,0.6
		c-0.1,0.2-0.2,0.5-0.3,0.9c-0.1,0.3-0.1,0.7-0.1,1c0,0.8,0.2,1.5,0.5,2c0.3,0.5,0.8,0.8,1.4,0.8c0.6,0,1.1-0.3,1.4-0.8
		C69,90.8,69.1,90.1,69.1,89.4z"/>
	<path class="st3" d="M92.1,92.2l-0.3,4.6h-12V96c0.2,0,0.4,0,0.8-0.1s0.6-0.1,0.7-0.1c0.2-0.1,0.4-0.2,0.5-0.4
		c0.1-0.2,0.1-0.4,0.1-0.7v-11c0-0.2,0-0.5-0.1-0.6c-0.1-0.2-0.2-0.3-0.5-0.5c-0.2-0.1-0.4-0.2-0.7-0.3c-0.3-0.1-0.5-0.1-0.7-0.1
		v-0.8h6.5v0.8c-0.2,0-0.5,0-0.8,0.1c-0.3,0.1-0.6,0.1-0.7,0.2c-0.2,0.1-0.4,0.2-0.5,0.4c-0.1,0.2-0.1,0.4-0.1,0.7v10.3
		c0,0.5,0,0.8,0.1,1.1c0,0.3,0.2,0.5,0.3,0.6c0.2,0.1,0.4,0.2,0.7,0.3s0.8,0.1,1.4,0.1c0.3,0,0.5,0,0.8,0c0.3,0,0.6,0,0.8-0.1
		c0.3,0,0.5-0.1,0.7-0.2c0.2-0.1,0.4-0.2,0.5-0.3c0.3-0.3,0.6-0.8,1-1.5c0.4-0.7,0.7-1.2,0.8-1.6H92.1z"/>
	<path class="st3" d="M103,96.6c-0.3,0.1-0.6,0.2-0.9,0.3c-0.3,0.1-0.5,0.1-0.9,0.1c-0.6,0-1-0.1-1.3-0.4c-0.3-0.3-0.5-0.6-0.6-1.2
		h-0.1c-0.5,0.5-1,0.9-1.5,1.2s-1.2,0.4-1.9,0.4c-0.8,0-1.5-0.2-2-0.7S93,95.2,93,94.4c0-0.4,0.1-0.8,0.2-1.1s0.3-0.6,0.5-0.9
		c0.2-0.2,0.4-0.4,0.7-0.6c0.3-0.2,0.6-0.3,0.8-0.4c0.3-0.1,1-0.3,2-0.7c1-0.3,1.7-0.6,2-0.8v-1.1c0-0.1,0-0.3-0.1-0.5
		c0-0.3-0.1-0.5-0.3-0.8c-0.1-0.3-0.3-0.5-0.6-0.7s-0.6-0.3-1.1-0.3c-0.3,0-0.6,0.1-0.9,0.2c-0.3,0.1-0.5,0.2-0.6,0.4
		c0,0.1,0,0.4,0.1,0.6c0.1,0.3,0.1,0.5,0.1,0.8c0,0.3-0.1,0.5-0.3,0.7c-0.2,0.2-0.5,0.3-0.9,0.3c-0.4,0-0.6-0.1-0.8-0.4
		c-0.2-0.3-0.3-0.5-0.3-0.9c0-0.3,0.1-0.6,0.4-1c0.2-0.3,0.5-0.6,0.9-0.8c0.3-0.2,0.7-0.4,1.2-0.5s0.9-0.2,1.4-0.2
		c0.6,0,1.1,0,1.6,0.1c0.5,0.1,0.9,0.3,1.2,0.5c0.4,0.3,0.6,0.6,0.8,1.1c0.2,0.5,0.3,1,0.3,1.8c0,1,0,1.9,0,2.7s0,1.7,0,2.6
		c0,0.3,0,0.5,0.1,0.7c0.1,0.2,0.2,0.3,0.4,0.4c0.1,0.1,0.3,0.1,0.5,0.1s0.5,0,0.7,0V96.6z M99.2,90.9c-0.6,0.2-1.1,0.4-1.6,0.5
		c-0.5,0.2-0.9,0.4-1.3,0.6c-0.4,0.2-0.6,0.5-0.9,0.9c-0.2,0.3-0.3,0.7-0.3,1.2c0,0.6,0.2,1,0.5,1.3c0.3,0.3,0.7,0.4,1.2,0.4
		c0.5,0,1-0.1,1.4-0.4c0.4-0.2,0.7-0.5,1-0.9L99.2,90.9z"/>
	<path class="st3" d="M115.8,96.8h-5.2v-0.7c0.2,0,0.3,0,0.5,0c0.2,0,0.4,0,0.5-0.1c0.2-0.1,0.4-0.2,0.4-0.3
		c0.1-0.2,0.1-0.4,0.1-0.6v-5.5c0-0.8-0.2-1.3-0.5-1.8c-0.4-0.4-0.8-0.6-1.3-0.6c-0.4,0-0.7,0.1-1.1,0.2c-0.3,0.1-0.6,0.3-0.8,0.4
		c-0.2,0.2-0.4,0.3-0.6,0.5c-0.1,0.2-0.2,0.3-0.3,0.5v6.1c0,0.2,0.1,0.4,0.2,0.6c0.1,0.2,0.3,0.3,0.5,0.4c0.2,0.1,0.3,0.1,0.5,0.2
		c0.2,0,0.4,0.1,0.5,0.1v0.7h-5.2v-0.7c0.2,0,0.3,0,0.5,0c0.2,0,0.3,0,0.5-0.1c0.2-0.1,0.4-0.2,0.4-0.3c0.1-0.2,0.1-0.4,0.1-0.6
		v-6.6c0-0.2-0.1-0.5-0.2-0.7c-0.1-0.2-0.3-0.4-0.4-0.5c-0.1-0.1-0.3-0.1-0.5-0.2s-0.4-0.1-0.6-0.1v-0.7l3.5-0.2l0.2,0.2v1.5h0.1
		c0.2-0.2,0.4-0.4,0.6-0.6c0.3-0.2,0.5-0.4,0.7-0.6c0.3-0.2,0.6-0.3,1-0.4s0.8-0.2,1.2-0.2c1,0,1.8,0.3,2.3,1
		c0.5,0.6,0.7,1.5,0.7,2.5v5.5c0,0.3,0,0.5,0.1,0.6c0.1,0.2,0.2,0.3,0.4,0.4c0.2,0.1,0.3,0.1,0.4,0.2c0.1,0,0.3,0.1,0.5,0.1V96.8z"
		/>
	<path class="st3" d="M126.6,94.3c-0.4,0.9-1,1.5-1.8,2c-0.7,0.5-1.6,0.8-2.6,0.8c-0.9,0-1.6-0.2-2.3-0.5s-1.2-0.7-1.6-1.2
		c-0.4-0.5-0.7-1.1-0.9-1.8c-0.2-0.7-0.3-1.4-0.3-2.2c0-0.7,0.1-1.4,0.3-2c0.2-0.7,0.5-1.3,1-1.8c0.4-0.5,0.9-0.9,1.5-1.2
		c0.6-0.3,1.3-0.5,2-0.5c0.8,0,1.4,0.1,2,0.4s1,0.6,1.4,1c0.3,0.4,0.6,0.9,0.7,1.4c0.2,0.5,0.2,1.1,0.2,1.8v0.7h-7.1
		c0,0.7,0.1,1.3,0.2,1.9s0.3,1.1,0.6,1.5c0.3,0.4,0.6,0.7,1.1,1c0.5,0.2,1,0.4,1.6,0.4c0.6,0,1.2-0.2,1.7-0.5
		c0.5-0.3,0.9-0.8,1.3-1.6L126.6,94.3z M124.2,90.2c0-0.4,0-0.8-0.1-1.3c-0.1-0.5-0.2-0.8-0.3-1.2c-0.2-0.3-0.4-0.6-0.7-0.8
		s-0.7-0.3-1.1-0.3c-0.8,0-1.4,0.3-1.9,0.9s-0.8,1.5-0.8,2.6H124.2z"/>
</g>
<polyline class="st4" points="60.5,25.5 89.1,25.5 122.4,64.7 122.4,64.7 94.3,64.7 60.9,25.5 "/>
<polygon class="st3" points="60.2,24 58.9,25.5 60.8,27.7 "/>
<polyline class="st3" points="60.5,27.1 60.5,24 60.2,24 "/>
</svg>
