<?xml version="1.0" encoding="utf-8"?>
<!-- Generator: Adobe Illustrator 27.5.0, SVG Export Plug-In . SVG Version: 6.00 Build 0)  -->
<svg version="1.1" xmlns="http://www.w3.org/2000/svg" xmlns:xlink="http://www.w3.org/1999/xlink" x="0px" y="0px"
	 viewBox="0 0 750 500" style="enable-background:new 0 0 750 500;" xml:space="preserve">
<g id="BACKGROUND">
</g>
<g id="OBJECTS">
	<g>
		<rect style="fill:#D1DFE8;" width="750" height="500"/>
		<g>
			<g>
				<g>
					<path style="fill:#479DA3;" d="M64.55,418.444H5.48c0.831-2.69,2.97-4.797,5.424-5.756c2.636-1.03,5.561-0.874,8.269-0.098
						c-0.498-0.142-1.167-1.038-1.514-1.416c-0.835-0.909-1.505-1.862-1.696-3.113c-0.213-1.398,0.195-2.817,1.065-3.923
						c1.455-1.847,3.989-2.511,6.257-2.273c0.114,0.012,0.227,0.026,0.34,0.044c0.443,0.067,0.88,0.178,1.298,0.341
						c1.817,0.708,3.422,1.95,4.795,3.317c0.259,0.257,0.516,0.52,0.751,0.799c0,0-3.84-3.194-4.742-5.618
						c-3.333-6.894,3.716-16.903,12.489-14.07c3.525,1.486,6.402,4.526,8.302,8.108c-7.018-10.508,4.616-16.893,8.749-7.437
						c-2.555-7.797,1.257-15.949,8.961-11.375c0.114,0.04,0.212,0.094,0.323,0.136V418.444z"/>
					<path style="fill:#7BBFBA;" d="M64.55,418.444H29.749c0.49-1.585,1.75-2.826,3.196-3.391c1.553-0.607,3.276-0.515,4.871-0.058
						c-0.813-1.583,0.298-3.717,1.855-4.334c1.557-0.617,3.3-0.103,4.8,0.666c-1.294-0.605-2.263-1.881-2.794-3.31
						c-1.964-4.061,2.19-9.958,7.358-8.289c2.077,0.876,3.772,2.667,4.891,4.777c-4.135-6.191,2.719-9.952,5.154-4.381
						c-2.368-6.093,2.202-9.667,5.47-8.292V418.444z"/>
					<path style="fill:#479DA3;" d="M28.465,385.15c0.934,0.841,2.286,0.729,2.286,0.729s-0.163-1.477-1.098-2.319
						c-0.934-0.841-2.286-0.728-2.286-0.728S27.531,384.309,28.465,385.15z"/>
					<path style="fill:#7BBFBA;" d="M55.31,394.914c0.696,1.254,2.196,1.633,2.196,1.633s0.371-1.653-0.324-2.907
						c-0.696-1.254-2.195-1.633-2.195-1.633S54.615,393.66,55.31,394.914z"/>
					<path style="fill:#479DA3;" d="M31.301,381.822c-0.398,1.771,0.531,3.546,0.531,3.546s1.573-1.097,1.971-2.869
						c0.398-1.771-0.531-3.546-0.531-3.546S31.698,380.051,31.301,381.822z"/>
				</g>
				
					<rect x="270.091" y="282.931" transform="matrix(-1 -1.224647e-16 1.224647e-16 -1 557.9391 598.7567)" style="fill:#FFFFFF;" width="17.757" height="32.895"/>
				<polygon style="fill:#0F3554;" points="117.242,257.817 240.799,257.746 313.625,340.354 257.654,340.354 100.449,340.354 
					44.478,340.354 				"/>
				
					<rect x="50.704" y="340.354" transform="matrix(-1 -1.224647e-16 1.224647e-16 -1 183.1068 753.788)" style="fill:#FFFFFF;" width="81.698" height="73.081"/>
				
					<rect x="50.704" y="340.354" transform="matrix(-1 -1.224647e-16 1.224647e-16 -1 110.3401 753.788)" style="fill:#F43D4F;" width="8.932" height="73.081"/>
				
					<rect x="123.471" y="340.354" transform="matrix(-1 -1.224647e-16 1.224647e-16 -1 255.8734 753.788)" style="fill:#F43D4F;" width="8.932" height="73.081"/>
				<g>
					<rect x="59.636" y="351.007" style="fill:#E1ECEF;" width="63.835" height="0.75"/>
					<rect x="59.636" y="361.302" style="fill:#E1ECEF;" width="63.835" height="0.75"/>
					<rect x="59.636" y="371.597" style="fill:#E1ECEF;" width="63.835" height="0.75"/>
					<rect x="59.636" y="381.892" style="fill:#E1ECEF;" width="63.835" height="0.75"/>
					<rect x="59.636" y="392.186" style="fill:#E1ECEF;" width="63.835" height="0.75"/>
					<rect x="59.636" y="402.48" style="fill:#E1ECEF;" width="63.835" height="0.75"/>
				</g>
				<g>
					<rect x="123.471" y="351.007" style="fill:#B72E41;" width="8.932" height="0.75"/>
					<rect x="123.471" y="361.302" style="fill:#B72E41;" width="8.932" height="0.75"/>
					<rect x="123.471" y="371.597" style="fill:#B72E41;" width="8.932" height="0.75"/>
					<rect x="123.471" y="381.892" style="fill:#B72E41;" width="8.932" height="0.75"/>
					<rect x="123.471" y="392.186" style="fill:#B72E41;" width="8.932" height="0.75"/>
					<rect x="123.471" y="402.48" style="fill:#B72E41;" width="8.932" height="0.75"/>
				</g>
				<g>
					<rect x="50.704" y="351.007" style="fill:#B72E41;" width="8.932" height="0.75"/>
					<rect x="50.704" y="361.302" style="fill:#B72E41;" width="8.932" height="0.75"/>
					<rect x="50.704" y="371.597" style="fill:#B72E41;" width="8.932" height="0.75"/>
					<rect x="50.704" y="381.892" style="fill:#B72E41;" width="8.932" height="0.75"/>
					<rect x="50.704" y="392.186" style="fill:#B72E41;" width="8.932" height="0.75"/>
					<rect x="50.704" y="402.48" style="fill:#B72E41;" width="8.932" height="0.75"/>
				</g>
				
					<rect x="66.056" y="367.949" transform="matrix(-1 -1.224647e-16 1.224647e-16 -1 183.4376 766.8128)" style="fill:#FFFFFF;" width="51.325" height="30.915"/>
				
					<rect x="225.701" y="340.354" transform="matrix(-1 -1.224647e-16 1.224647e-16 -1 533.1008 753.788)" style="fill:#FFFFFF;" width="81.698" height="73.081"/>
				<g>
					<rect x="226.398" y="351.007" style="fill:#E1ECEF;" width="81.002" height="0.75"/>
					<rect x="226.398" y="361.302" style="fill:#E1ECEF;" width="81.002" height="0.75"/>
					<rect x="226.398" y="371.597" style="fill:#E1ECEF;" width="81.002" height="0.75"/>
					<rect x="226.398" y="381.892" style="fill:#E1ECEF;" width="81.002" height="0.75"/>
					<rect x="226.398" y="392.186" style="fill:#E1ECEF;" width="81.002" height="0.75"/>
					<rect x="226.398" y="402.48" style="fill:#E1ECEF;" width="81.002" height="0.75"/>
				</g>
				
					<rect x="239.654" y="355.377" transform="matrix(-1 -1.224647e-16 1.224647e-16 -1 533.1009 768.8113)" style="fill:#F43D4F;" width="53.792" height="58.057"/>
				<polygon style="fill:#B72E41;" points="239.654,357.929 293.447,366.659 293.447,355.377 239.654,355.377 				"/>
				<polygon style="fill:#9BB8CC;" points="225.701,413.434 229.276,413.434 227.044,340.354 225.701,340.354 				"/>
				
					<rect x="248.522" y="367.949" transform="matrix(-1 -1.224647e-16 1.224647e-16 -1 532.9552 781.3835)" style="fill:#FFFFFF;" width="35.912" height="45.485"/>
				
					<rect x="267.829" y="370.032" transform="matrix(-1 -1.224647e-16 1.224647e-16 -1 549.6665 780.9371)" style="fill:#445C77;" width="14.009" height="40.872"/>
				
					<rect x="251.263" y="370.032" transform="matrix(-1 -1.224647e-16 1.224647e-16 -1 516.5353 780.9371)" style="fill:#445C77;" width="14.009" height="40.872"/>
				
					<rect x="106.358" y="370.032" transform="matrix(-1 -1.224647e-16 1.224647e-16 -1 221.3501 766.4765)" style="fill:#445C77;" width="8.635" height="26.412"/>
				
					<rect x="79.251" y="370.032" transform="matrix(-1 -1.224647e-16 1.224647e-16 -1 183.1068 766.4765)" style="fill:#445C77;" width="24.605" height="26.412"/>
				
					<rect x="68.114" y="370.032" transform="matrix(-1 -1.224647e-16 1.224647e-16 -1 144.8634 766.4765)" style="fill:#445C77;" width="8.635" height="26.412"/>
				<polygon style="fill:#9BB8CC;" points="66.056,367.552 117.381,367.552 118.142,367.552 118.77,398.864 117.381,398.864 
					117.381,367.949 66.056,367.949 				"/>
				<polygon style="fill:#B72E41;" points="248.521,367.314 284.434,367.314 284.781,367.314 285.231,367.314 285.674,413.434 
					284.434,413.434 284.434,367.949 248.521,367.949 				"/>
				<polygon style="fill:#9BB8CC;" points="117.381,398.603 66.056,398.603 66.056,399.335 118.77,401.567 118.77,398.603 				"/>
				<polygon style="fill:#9BB8CC;" points="225.701,341.561 307.4,346.025 307.4,340.354 225.701,340.354 				"/>
				<polygon style="fill:#9BB8CC;" points="123.471,340.354 123.471,345.537 59.636,342.049 59.636,340.354 				"/>
				<polygon style="fill:#B72E41;" points="59.636,340.354 59.636,342.049 50.704,341.561 50.704,340.354 				"/>
				<polygon style="fill:#B72E41;" points="132.402,340.354 132.402,346.025 123.471,345.537 123.471,340.354 				"/>
				
					<rect x="268.008" y="287.296" transform="matrix(-1 -1.224647e-16 1.224647e-16 -1 557.9392 578.5596)" style="fill:#0F3554;" width="21.924" height="3.968"/>
				<polygon style="fill:#9BB8CC;" points="287.848,291.264 287.848,294.438 270.091,292.405 270.091,291.264 				"/>
				<g>
					<polygon style="fill:#FFFFFF;" points="132.402,413.434 225.701,413.434 225.701,299.817 179.052,263.414 132.402,299.817 
											"/>
					<polygon style="fill:#9BB8CC;" points="179.052,263.414 225.701,299.817 225.701,308.051 181.225,273.666 132.402,311.764 
						132.402,299.817 					"/>
					<polygon style="fill:#FFFFFF;" points="124.992,300.784 179.052,260.219 233.075,301.19 227.808,306.457 179.052,268.41 
						130.503,306.295 					"/>
				</g>
				<g>
					
						<rect x="196.896" y="370.032" transform="matrix(-1 -1.224647e-16 1.224647e-16 -1 407.8007 780.9371)" style="fill:#445C77;" width="14.009" height="40.872"/>
					
						<rect x="180.331" y="370.032" transform="matrix(-1 -1.224647e-16 1.224647e-16 -1 374.6695 780.9371)" style="fill:#445C77;" width="14.009" height="40.872"/>
					
						<rect x="163.765" y="370.032" transform="matrix(-1 -1.224647e-16 1.224647e-16 -1 341.5383 780.9371)" style="fill:#445C77;" width="14.009" height="40.872"/>
					
						<rect x="147.199" y="370.032" transform="matrix(-1 -1.224647e-16 1.224647e-16 -1 308.4071 780.9371)" style="fill:#445C77;" width="14.009" height="40.872"/>
					<polygon style="fill:#9BB8CC;" points="145.56,367.552 214.296,367.552 215.362,413.434 213.205,413.434 213.205,367.949 
						145.56,367.949 					"/>
				</g>
				
					<rect x="180.331" y="300.544" transform="matrix(-1 -1.224647e-16 1.224647e-16 -1 374.6695 641.9603)" style="fill:#445C77;" width="14.009" height="40.872"/>
				
					<rect x="163.765" y="300.544" transform="matrix(-1 -1.224647e-16 1.224647e-16 -1 341.5383 641.9603)" style="fill:#445C77;" width="14.009" height="40.872"/>
				<polygon style="fill:#9BB8CC;" points="161.502,298.064 197.599,298.064 198.666,343.946 196.508,343.946 196.508,298.461 
					161.502,298.461 				"/>
				
					<rect x="142.359" y="343.652" transform="matrix(-1 -1.224647e-16 1.224647e-16 -1 358.1039 691.0736)" style="fill:#0F3554;" width="73.387" height="3.77"/>
				<polygon style="fill:#9BB8CC;" points="142.359,347.422 215.745,347.422 215.745,343.652 218.562,347.422 218.562,350.969 
					142.359,348.257 				"/>
				<g>
					
						<rect x="211.345" y="333.376" transform="matrix(-1 -1.224647e-16 1.224647e-16 -1 423.8797 677.0282)" style="fill:#7BBFBA;" width="1.191" height="10.276"/>
					
						<rect x="171.591" y="333.376" transform="matrix(-1 -1.224647e-16 1.224647e-16 -1 344.3721 677.0282)" style="fill:#7BBFBA;" width="1.191" height="10.276"/>
					
						<rect x="184.842" y="333.376" transform="matrix(-1 -1.224647e-16 1.224647e-16 -1 370.8747 677.0282)" style="fill:#7BBFBA;" width="1.191" height="10.276"/>
					
						<rect x="158.34" y="333.376" transform="matrix(-1 -1.224647e-16 1.224647e-16 -1 317.8696 677.0282)" style="fill:#7BBFBA;" width="1.19" height="10.276"/>
					
						<rect x="198.093" y="333.376" transform="matrix(-1 -1.224647e-16 1.224647e-16 -1 397.3772 677.0282)" style="fill:#7BBFBA;" width="1.19" height="10.276"/>
					
						<rect x="145.088" y="333.376" transform="matrix(-1 -1.224647e-16 1.224647e-16 -1 291.3671 677.0282)" style="fill:#7BBFBA;" width="1.191" height="10.276"/>
				</g>
				<g>
					
						<rect x="211.345" y="333.376" transform="matrix(-1 -1.224647e-16 1.224647e-16 -1 423.8797 667.7198)" style="fill:#4A938C;" width="1.191" height="0.967"/>
					
						<rect x="171.591" y="333.376" transform="matrix(-1 -1.224647e-16 1.224647e-16 -1 344.3721 667.7198)" style="fill:#4A938C;" width="1.191" height="0.967"/>
					
						<rect x="184.842" y="333.376" transform="matrix(-1 -1.224647e-16 1.224647e-16 -1 370.8747 667.7198)" style="fill:#4A938C;" width="1.191" height="0.967"/>
					
						<rect x="158.34" y="333.376" transform="matrix(-1 -1.224647e-16 1.224647e-16 -1 317.8696 667.7198)" style="fill:#4A938C;" width="1.19" height="0.967"/>
					
						<rect x="198.093" y="333.376" transform="matrix(-1 -1.224647e-16 1.224647e-16 -1 397.3772 667.7198)" style="fill:#4A938C;" width="1.19" height="0.967"/>
					
						<rect x="145.088" y="333.376" transform="matrix(-1 -1.224647e-16 1.224647e-16 -1 291.3671 667.7198)" style="fill:#4A938C;" width="1.191" height="0.967"/>
				</g>
				<polygon style="fill:#7BBFBA;" points="144.01,333.376 214.172,333.376 214.172,330.772 144.01,331.377 				"/>
				
					<rect x="48.149" y="413.434" transform="matrix(-1 -1.224647e-16 1.224647e-16 -1 360.9186 831.8786)" style="fill:#7BBFBA;" width="264.62" height="5.01"/>
				<g>
					<g>
						
							<rect x="9.672" y="408.088" transform="matrix(-1 -1.224647e-16 1.224647e-16 -1 77.2537 817.7712)" style="fill:#B6CCD8;" width="57.91" height="1.595"/>
						
							<rect x="9.672" y="414.568" transform="matrix(-1 -1.224647e-16 1.224647e-16 -1 77.2537 830.7312)" style="fill:#B6CCD8;" width="57.91" height="1.595"/>
					</g>
					<g>
						<path style="fill:#FFFFFF;" d="M63.251,418.444h2.772c0.171,0,0.309-0.131,0.309-0.292V406.19
							c0-0.065-0.023-0.128-0.065-0.179l-1.386-1.686c-0.124-0.151-0.364-0.151-0.488,0l-1.386,1.686
							c-0.042,0.051-0.065,0.114-0.065,0.179v11.962C62.942,418.314,63.081,418.444,63.251,418.444z"/>
						<path style="fill:#FFFFFF;" d="M57.46,418.444h2.772c0.171,0,0.309-0.131,0.309-0.292V406.19c0-0.065-0.023-0.128-0.065-0.179
							l-1.386-1.686c-0.124-0.151-0.364-0.151-0.488,0l-1.386,1.686c-0.042,0.051-0.065,0.114-0.065,0.179v11.962
							C57.151,418.314,57.29,418.444,57.46,418.444z"/>
						<path style="fill:#FFFFFF;" d="M51.669,418.444h2.772c0.171,0,0.309-0.131,0.309-0.292V406.19
							c0-0.065-0.023-0.128-0.065-0.179l-1.386-1.686c-0.124-0.151-0.364-0.151-0.488,0l-1.386,1.686
							c-0.042,0.051-0.065,0.114-0.065,0.179v11.962C51.36,418.314,51.499,418.444,51.669,418.444z"/>
						<path style="fill:#FFFFFF;" d="M45.878,418.444h2.772c0.171,0,0.309-0.131,0.309-0.292V406.19
							c0-0.065-0.023-0.128-0.065-0.179l-1.386-1.686c-0.124-0.151-0.364-0.151-0.488,0l-1.386,1.686
							c-0.042,0.051-0.065,0.114-0.065,0.179v11.962C45.57,418.314,45.708,418.444,45.878,418.444z"/>
						<path style="fill:#FFFFFF;" d="M40.088,418.444h2.772c0.171,0,0.309-0.131,0.309-0.292V406.19
							c0-0.065-0.023-0.128-0.065-0.179l-1.386-1.686c-0.124-0.151-0.364-0.151-0.488,0l-1.386,1.686
							c-0.042,0.051-0.065,0.114-0.065,0.179v11.962C39.779,418.314,39.917,418.444,40.088,418.444z"/>
						<path style="fill:#FFFFFF;" d="M34.297,418.444h2.772c0.171,0,0.309-0.131,0.309-0.292V406.19
							c0-0.065-0.023-0.128-0.065-0.179l-1.386-1.686c-0.124-0.151-0.364-0.151-0.488,0l-1.386,1.686
							c-0.042,0.051-0.065,0.114-0.065,0.179v11.962C33.988,418.314,34.126,418.444,34.297,418.444z"/>
						<path style="fill:#FFFFFF;" d="M28.506,418.444h2.772c0.171,0,0.309-0.131,0.309-0.292V406.19
							c0-0.065-0.023-0.128-0.065-0.179l-1.386-1.686c-0.124-0.151-0.364-0.151-0.488,0l-1.386,1.686
							c-0.042,0.051-0.065,0.114-0.065,0.179v11.962C28.197,418.314,28.335,418.444,28.506,418.444z"/>
						<path style="fill:#FFFFFF;" d="M22.715,418.444h2.772c0.171,0,0.309-0.131,0.309-0.292V406.19
							c0-0.065-0.023-0.128-0.065-0.179l-1.386-1.686c-0.124-0.151-0.364-0.151-0.488,0l-1.386,1.686
							c-0.042,0.051-0.065,0.114-0.065,0.179v11.962C22.406,418.314,22.544,418.444,22.715,418.444z"/>
						<path style="fill:#FFFFFF;" d="M16.924,418.444h2.772c0.171,0,0.309-0.131,0.309-0.292V406.19
							c0-0.065-0.023-0.128-0.065-0.179l-1.386-1.686c-0.124-0.151-0.364-0.151-0.488,0l-1.386,1.686
							c-0.042,0.051-0.065,0.114-0.065,0.179v11.962C16.615,418.314,16.753,418.444,16.924,418.444z"/>
						<path style="fill:#FFFFFF;" d="M11.133,418.444h2.772c0.171,0,0.309-0.131,0.309-0.292V406.19
							c0-0.065-0.023-0.128-0.065-0.179l-1.386-1.686c-0.124-0.151-0.364-0.151-0.488,0l-1.386,1.686
							c-0.042,0.051-0.065,0.114-0.065,0.179v11.962C10.824,418.314,10.962,418.444,11.133,418.444z"/>
					</g>
				</g>
			</g>
			<g>
				<g>
					<polygon style="fill:#FFFFFF;" points="548.172,283.28 548.172,250.996 569.924,250.996 569.924,267.511 					"/>
				</g>
				<g>
					<polygon style="fill:#FFFFFF;" points="548.172,283.28 548.172,250.996 569.924,250.996 569.924,267.511 					"/>
				</g>
				<g>
					<polygon style="fill:#F43D4F;" points="569.924,266.472 569.924,267.511 548.172,283.28 548.172,266.472 					"/>
				</g>
				<g>
					
						<rect x="565.373" y="253.705" transform="matrix(-1 -1.224647e-16 1.224647e-16 -1 1132.4467 511.3459)" style="fill:#0F3554;" width="1.701" height="3.936"/>
					
						<rect x="560.589" y="253.705" transform="matrix(-1 -1.224647e-16 1.224647e-16 -1 1122.8795 511.3459)" style="fill:#0F3554;" width="1.701" height="3.936"/>
					
						<rect x="555.806" y="253.705" transform="matrix(-1 -1.224647e-16 1.224647e-16 -1 1113.3123 511.3459)" style="fill:#0F3554;" width="1.701" height="3.936"/>
					
						<rect x="551.022" y="253.705" transform="matrix(-1 -1.224647e-16 1.224647e-16 -1 1103.7449 511.3459)" style="fill:#0F3554;" width="1.701" height="3.936"/>
				</g>
				<g>
					<path style="fill:#479DA3;" d="M717.82,418.529h27.67c-0.389-1.442-1.391-2.571-2.541-3.086
						c-1.235-0.552-2.605-0.468-3.873-0.053c0.233-0.076,0.547-0.556,0.709-0.759c0.391-0.487,0.705-0.998,0.794-1.669
						c0.1-0.749-0.091-1.51-0.499-2.103c-0.681-0.99-1.869-1.346-2.931-1.218c-0.053,0.006-0.106,0.014-0.159,0.023
						c-0.208,0.036-0.412,0.096-0.608,0.183c-0.851,0.38-1.603,1.046-2.246,1.778c-0.121,0.138-0.241,0.279-0.352,0.428
						c0,0,1.799-1.712,2.221-3.012c1.561-3.695-1.741-9.061-5.85-7.542c-1.651,0.797-2.999,2.426-3.889,4.346
						c3.288-5.633-2.162-9.055-4.098-3.986c1.197-4.179-0.589-8.549-4.197-6.097c-0.053,0.022-0.099,0.05-0.151,0.073V418.529z"/>
					<path style="fill:#7BBFBA;" d="M717.82,418.529h16.302c-0.229-0.85-0.82-1.515-1.497-1.818
						c-0.727-0.325-1.535-0.276-2.282-0.031c0.381-0.849-0.14-1.992-0.869-2.323c-0.729-0.331-1.546-0.055-2.248,0.357
						c0.606-0.324,1.06-1.008,1.309-1.774c0.92-2.177-1.026-5.338-3.446-4.443c-0.973,0.469-1.767,1.429-2.291,2.56
						c1.937-3.318-1.274-5.335-2.414-2.348c1.109-3.266-1.031-5.182-2.562-4.445V418.529z"/>
					<path style="fill:#479DA3;" d="M734.724,400.683c-0.438,0.451-1.071,0.391-1.071,0.391s0.077-0.792,0.514-1.243
						c0.438-0.451,1.071-0.391,1.071-0.391S735.161,400.232,734.724,400.683z"/>
					<path style="fill:#7BBFBA;" d="M722.148,405.917c-0.326,0.672-1.028,0.875-1.028,0.875s-0.174-0.886,0.152-1.558
						c0.326-0.672,1.028-0.875,1.028-0.875S722.474,405.245,722.148,405.917z"/>
					<path style="fill:#479DA3;" d="M733.395,398.899c0.186,0.949-0.249,1.9-0.249,1.9s-0.737-0.588-0.923-1.538
						c-0.186-0.949,0.249-1.9,0.249-1.9S733.209,397.949,733.395,398.899z"/>
				</g>
				<polygon style="fill:#F43D4F;" points="453.419,418.636 494.163,418.636 494.163,328.132 453.419,353.705 				"/>
				<polygon style="fill:#B72E41;" points="453.419,368.198 494.163,337.513 494.163,328.132 453.419,353.767 				"/>
				<polygon style="fill:#FFFFFF;" points="494.163,418.502 719.165,418.502 719.165,321.639 608.545,240.646 494.163,321.639 				
					"/>
				<polygon style="fill:#9BB8CC;" points="608.024,239.244 719.262,322.3 719.262,333.477 609.807,252.357 494.163,337.513 
					494.163,325.268 				"/>
				<polygon style="fill:#0F3554;" points="608.024,238.136 728.155,324.308 721.962,331.663 608.024,246.592 453.342,362.124 
					447.571,354.45 				"/>
				<g>
					<rect x="478.492" y="343.625" style="fill:#B72E41;" width="15.671" height="0.75"/>
					<rect x="461.291" y="356.103" style="fill:#B72E41;" width="32.872" height="0.75"/>
					<rect x="453.419" y="368.581" style="fill:#B72E41;" width="40.744" height="0.75"/>
					<rect x="453.419" y="381.06" style="fill:#B72E41;" width="40.744" height="0.75"/>
					<rect x="453.419" y="393.537" style="fill:#B72E41;" width="40.744" height="0.75"/>
					<rect x="453.419" y="406.016" style="fill:#B72E41;" width="40.744" height="0.75"/>
				</g>
				
					<rect x="453.419" y="371.016" transform="matrix(-1 -1.224647e-16 1.224647e-16 -1 931.3285 766.8143)" style="fill:#FFFFFF;" width="24.49" height="24.781"/>
				
					<rect x="453.419" y="373.106" transform="matrix(-1 -1.224647e-16 1.224647e-16 -1 929.2159 766.8143)" style="fill:#445C77;" width="22.377" height="20.603"/>
				<polygon style="fill:#B72E41;" points="477.909,371.016 479.853,371.016 479.853,397.839 453.419,397.839 453.419,395.798 
					477.909,395.798 				"/>
				
					<rect x="450.387" y="414.943" transform="matrix(-1 -1.224647e-16 1.224647e-16 -1 944.5495 833.5785)" style="fill:#0F3554;" width="43.776" height="3.693"/>
				<g>
					<g>
						
							<rect x="607.883" y="288.379" transform="matrix(-1 -1.224647e-16 1.224647e-16 -1 1249.3674 619.9715)" style="fill:#FFFFFF;" width="33.601" height="43.214"/>
						
							<rect x="625.939" y="290.33" transform="matrix(-1 -1.224647e-16 1.224647e-16 -1 1265.236 619.6324)" style="fill:#445C77;" width="13.357" height="38.972"/>
						
							<rect x="610.144" y="290.33" transform="matrix(-1 -1.224647e-16 1.224647e-16 -1 1233.6449 619.6324)" style="fill:#445C77;" width="13.357" height="38.972"/>
					</g>
					<g>
						
							<rect x="574.471" y="288.379" transform="matrix(-1 -1.224647e-16 1.224647e-16 -1 1182.5424 619.9715)" style="fill:#FFFFFF;" width="33.601" height="43.214"/>
						
							<rect x="592.527" y="290.33" transform="matrix(-1 -1.224647e-16 1.224647e-16 -1 1198.4109 619.6324)" style="fill:#445C77;" width="13.357" height="38.972"/>
						
							<rect x="576.731" y="290.33" transform="matrix(-1 -1.224647e-16 1.224647e-16 -1 1166.8199 619.6324)" style="fill:#445C77;" width="13.357" height="38.972"/>
					</g>
					
						<rect x="575.286" y="298.13" transform="matrix(-1 -1.224647e-16 1.224647e-16 -1 1215.4896 597.3284)" style="fill:#FFFFFF;" width="64.918" height="1.069"/>
				</g>
				<polygon style="fill:#9BB8CC;" points="642.76,331.593 641.484,331.593 641.484,288.379 642.213,288.379 				"/>
				<rect x="676.657" y="350.353" style="fill:#F43D4F;" width="19.983" height="0.352"/>
				
					<rect x="617.875" y="365.38" transform="matrix(-1 -1.224647e-16 1.224647e-16 -1 1294.5315 783.8819)" style="fill:#7BBFBA;" width="58.782" height="53.122"/>
				<rect x="517.939" y="350.353" style="fill:#F43D4F;" width="19.983" height="0.352"/>
				<g>
					<polygon style="fill:#9BB8CC;" points="700.323,350.705 700.323,358.431 696.64,358.324 696.64,350.705 					"/>
					<polygon style="fill:#9BB8CC;" points="514.255,350.705 517.939,350.705 517.939,353.144 514.255,353.038 					"/>
					<polygon style="fill:#9BB8CC;" points="676.657,350.705 676.657,357.745 617.875,356.041 617.875,350.705 					"/>
					<polygon style="fill:#9BB8CC;" points="597.892,350.705 597.892,355.462 537.922,353.724 537.922,350.705 					"/>
				</g>
				<polygon style="fill:#F43D4F;" points="696.64,350.705 696.64,358.324 698.076,418.502 676.657,418.502 676.657,357.745 
					676.657,350.705 				"/>
				<polygon style="fill:#F43D4F;" points="537.922,350.705 537.922,353.724 537.922,418.502 516.151,418.502 517.939,353.144 
					517.939,350.705 				"/>
				<polygon style="fill:#F43D4F;" points="617.875,350.705 617.875,356.014 617.875,418.502 597.892,418.502 597.892,355.437 
					597.892,350.705 				"/>
				<polygon style="fill:#B72E41;" points="696.64,350.705 696.64,350.971 696.64,353.071 676.657,353.071 676.657,350.951 
					676.657,350.705 				"/>
				<polygon style="fill:#B72E41;" points="537.922,350.705 537.922,350.811 537.922,353.071 517.939,353.071 517.939,350.79 
					517.939,350.705 				"/>
				<polygon style="fill:#B72E41;" points="617.875,350.705 617.875,350.892 617.875,353.084 597.892,353.084 597.892,350.871 
					597.892,350.705 				"/>
				
					<rect x="537.922" y="412.999" transform="matrix(-1 -1.224647e-16 1.224647e-16 -1 1135.8138 831.5013)" style="fill:#7BBFBA;" width="59.97" height="5.503"/>
				
					<rect x="537.922" y="412.999" transform="matrix(-1 -1.224647e-16 1.224647e-16 -1 1135.8138 831.5013)" style="fill:#7BBFBA;" width="59.97" height="5.503"/>
				
					<rect x="543.216" y="407.496" transform="matrix(-1 -1.224647e-16 1.224647e-16 -1 1135.8137 820.4954)" style="fill:#7BBFBA;" width="49.382" height="5.503"/>
				
					<rect x="543.216" y="412.076" transform="matrix(-1 -1.224647e-16 1.224647e-16 -1 1135.8137 825.0751)" style="fill:#479DA3;" width="49.382" height="0.923"/>
				
					<rect x="555.063" y="362.124" transform="matrix(-1 -1.224647e-16 1.224647e-16 -1 1135.8138 769.6202)" style="fill:#FFFFFF;" width="25.688" height="45.372"/>
				<polygon style="fill:#9BB8CC;" points="554.598,362.805 581.216,363.971 581.216,362.124 554.598,362.124 				"/>
				<rect x="580.751" y="361.042" style="fill:#9BB8CC;" width="1.225" height="46.454"/>
				<rect x="553.837" y="361.042" style="fill:#9BB8CC;" width="1.225" height="46.454"/>
				<g>
					<rect x="559.048" y="393.842" style="fill:#445C77;" width="17.718" height="10.398"/>
					<path style="fill:#445C77;" d="M559.048,391.728V368.36h2.95c1.342-1.805,3.485-2.98,5.907-2.98
						c2.422,0,4.565,1.175,5.908,2.98h2.953v23.369H559.048z"/>
				</g>
				
					<rect x="550.142" y="359.598" transform="matrix(-1 -1.224647e-16 1.224647e-16 -1 1135.8137 721.7215)" style="fill:#0F3554;" width="35.53" height="2.526"/>
				<g>
					<rect x="617.875" y="367.823" style="fill:#479DA3;" width="58.781" height="0.75"/>
					<rect x="617.875" y="370.972" style="fill:#479DA3;" width="58.781" height="0.75"/>
					<rect x="617.875" y="374.12" style="fill:#479DA3;" width="58.781" height="0.75"/>
					<rect x="617.875" y="377.27" style="fill:#479DA3;" width="58.781" height="0.75"/>
					<rect x="617.875" y="380.418" style="fill:#479DA3;" width="58.781" height="0.75"/>
					<rect x="617.875" y="383.566" style="fill:#479DA3;" width="58.781" height="0.75"/>
					<rect x="617.875" y="386.716" style="fill:#479DA3;" width="58.781" height="0.75"/>
					<rect x="617.875" y="389.864" style="fill:#479DA3;" width="58.781" height="0.75"/>
					<rect x="617.875" y="393.013" style="fill:#479DA3;" width="58.781" height="0.75"/>
					<rect x="617.875" y="396.161" style="fill:#479DA3;" width="58.781" height="0.75"/>
					<rect x="617.875" y="399.31" style="fill:#479DA3;" width="58.781" height="0.75"/>
					<rect x="617.875" y="402.459" style="fill:#479DA3;" width="58.781" height="0.75"/>
					<rect x="617.875" y="405.607" style="fill:#479DA3;" width="58.781" height="0.75"/>
					<rect x="617.875" y="408.756" style="fill:#479DA3;" width="58.781" height="0.75"/>
					<rect x="617.875" y="411.905" style="fill:#479DA3;" width="58.781" height="0.75"/>
					<rect x="617.875" y="415.054" style="fill:#479DA3;" width="58.781" height="0.75"/>
				</g>
				
					<rect x="617.875" y="363.047" transform="matrix(-1 -1.224647e-16 1.224647e-16 -1 1294.5315 728.4271)" style="fill:#0F3554;" width="58.782" height="2.332"/>
				<g>
					
						<rect x="686.795" y="321.259" transform="matrix(-1 -1.224647e-16 1.224647e-16 -1 1380.8795 652.4683)" style="fill:#7BBFBA;" width="7.289" height="9.95"/>
					
						<rect x="645.611" y="321.259" transform="matrix(-1 -1.224647e-16 1.224647e-16 -1 1298.5114 652.4683)" style="fill:#7BBFBA;" width="7.289" height="9.95"/>
					
						<rect x="563.243" y="321.259" transform="matrix(-1 -1.224647e-16 1.224647e-16 -1 1133.7749 652.4683)" style="fill:#7BBFBA;" width="7.289" height="9.95"/>
					
						<rect x="604.427" y="321.259" transform="matrix(-1 -1.224647e-16 1.224647e-16 -1 1216.1431 652.4683)" style="fill:#7BBFBA;" width="7.289" height="9.95"/>
					
						<rect x="522.059" y="321.259" transform="matrix(-1 -1.224647e-16 1.224647e-16 -1 1051.4066 652.4683)" style="fill:#7BBFBA;" width="7.289" height="9.95"/>
				</g>
				<g>
					
						<rect x="686.795" y="321.259" transform="matrix(-1 -1.224647e-16 1.224647e-16 -1 1380.8795 643.6844)" style="fill:#479DA3;" width="7.289" height="1.166"/>
					
						<rect x="645.611" y="321.259" transform="matrix(-1 -1.224647e-16 1.224647e-16 -1 1298.5114 643.6844)" style="fill:#479DA3;" width="7.289" height="1.166"/>
					
						<rect x="563.243" y="321.259" transform="matrix(-1 -1.224647e-16 1.224647e-16 -1 1133.7749 643.6844)" style="fill:#479DA3;" width="7.289" height="1.166"/>
					
						<rect x="604.427" y="321.259" transform="matrix(-1 -1.224647e-16 1.224647e-16 -1 1216.1431 643.6844)" style="fill:#479DA3;" width="7.289" height="1.166"/>
					
						<rect x="522.059" y="321.259" transform="matrix(-1 -1.224647e-16 1.224647e-16 -1 1051.4066 643.6844)" style="fill:#479DA3;" width="7.289" height="1.166"/>
				</g>
				
					<rect x="520.922" y="320.093" transform="matrix(-1 -1.224647e-16 1.224647e-16 -1 1216.3741 641.352)" style="fill:#7BBFBA;" width="174.529" height="1.166"/>
				<polygon style="fill:#0F3554;" points="514.255,350.705 700.323,350.705 701.137,330.734 514.255,331.209 				"/>
				<path style="fill:#445C77;" d="M608.705,276.246v-8.411c2.248,0.158,4.263,1.15,5.748,2.663L608.705,276.246z"/>
				<path style="fill:#445C77;" d="M615.203,271.363c1.134,1.496,1.81,3.358,1.81,5.381c0,0.004-0.001,0.008-0.001,0.012h-7.202
					L615.203,271.363z"/>
				<path style="fill:#445C77;" d="M602.063,270.139c1.471-1.335,3.385-2.191,5.5-2.31v7.81
					C605.729,273.805,603.896,271.972,602.063,270.139z"/>
				<path style="fill:#445C77;" d="M607.065,276.756h-7.933c0-0.004-0.001-0.008-0.001-0.012c0-2.21,0.81-4.225,2.139-5.783
					C603.202,272.892,605.133,274.824,607.065,276.756z"/>
				<path style="fill:#9BB8CC;" d="M597.845,278.16h20.975c0-0.005,0.001-0.011,0.001-0.016c0-3.13-1.143-5.968-2.995-8.082
					c4.151,3.238,3.917,8.863,3.917,8.868h-21.898V278.16z"/>
				<g>
					
						<rect x="703.81" y="367.207" transform="matrix(-1 -1.224647e-16 1.224647e-16 -1 1415.9281 748.9911)" style="fill:#445C77;" width="8.309" height="14.577"/>
					<polygon style="fill:#9BB8CC;" points="713.285,365.914 713.285,382.903 702.321,382.903 702.321,383.504 713.771,383.504 
						713.771,365.914 					"/>
				</g>
				<g>
					
						<rect x="501.814" y="367.207" transform="matrix(-1 -1.224647e-16 1.224647e-16 -1 1011.9375 748.9911)" style="fill:#445C77;" width="8.309" height="14.577"/>
					<polygon style="fill:#9BB8CC;" points="511.289,365.914 511.289,382.903 500.326,382.903 500.326,383.504 511.775,383.504 
						511.775,365.914 					"/>
				</g>
				<g>
					<polygon style="fill:#0F3554;" points="726.471,418.502 732.497,418.502 731.355,402.834 727.613,402.834 					"/>
					
						<rect x="728.498" y="350.705" transform="matrix(-1 -1.224647e-16 1.224647e-16 -1 1458.9677 769.2074)" style="fill:#0F3554;" width="1.972" height="67.797"/>
					<polygon style="fill:#0F3554;" points="726.374,350.705 732.594,350.705 734.877,339.432 724.09,339.432 					"/>
					<polygon style="fill:#FFFFFF;" points="727.527,348.616 731.441,348.616 732.878,341.522 726.09,341.522 					"/>
					<polygon style="fill:#0F3554;" points="726.374,336.565 732.594,336.565 734.877,339.432 724.09,339.432 					"/>
					<path style="fill:#0F3554;" d="M725.906,350.705h7.143c0.321,0,0.583-0.262,0.583-0.583l0,0c0-0.321-0.262-0.583-0.583-0.583
						h-7.143c-0.321,0-0.583,0.262-0.583,0.583l0,0C725.323,350.443,725.586,350.705,725.906,350.705z"/>
					<path style="fill:#0F3554;" d="M727.528,403.417h3.899c0.321,0,0.583-0.262,0.583-0.583l0,0c0-0.321-0.262-0.583-0.583-0.583
						h-3.899c-0.321,0-0.583,0.262-0.583,0.583l0,0C726.945,403.155,727.207,403.417,727.528,403.417z"/>
					<path style="fill:#0F3554;" d="M727.783,336.565c0,0.936,0.759,1.695,1.695,1.695c0.936,0,1.695-0.759,1.695-1.695
						c0-0.936-0.759-1.695-1.695-1.695C728.542,334.871,727.783,335.629,727.783,336.565z"/>
				</g>
				<g>
					<g>
						<path style="fill:#479DA3;" d="M694.472,415.031c2.161-6.864,11.014-7.945,13.935-1.317c3.653-1.003,6.594,0.3,8.993,2.966
							c1.178-1.489,3.974-2.071,6.053-0.856c1.674-5.317,8.532-6.154,10.795-1.021c3.431-0.942,6.051,0.738,8.095,3.745h-23.486
							h-4.102h-31.511C686.689,415.627,690.328,413.845,694.472,415.031z"/>
					</g>
					<g>
						<path style="fill:#7BBFBA;" d="M709.198,418.5c1.756-2.583,4.006-4.025,6.953-3.216c1.944-4.409,7.833-3.69,9.271,0.876
							c2.757-0.789,5.178,0.397,7.47,2.34H709.198z"/>
					</g>
					<g>
						<path style="fill:#479DA3;" d="M708.482,412.059c0.278,0.54,0.922,0.762,0.922,0.762s0.193-0.654-0.085-1.194
							c-0.278-0.54-0.923-0.762-0.923-0.762S708.203,411.519,708.482,412.059z"/>
						<path style="fill:#479DA3;" d="M710.395,411.225c-0.505,0.665-0.399,1.596-0.399,1.596s0.925-0.148,1.431-0.813
							c0.505-0.665,0.399-1.596,0.399-1.596S710.9,410.559,710.395,411.225z"/>
					</g>
					<g>
						<path style="fill:#7BBFBA;" d="M727.901,414.543c0.159,0.586,0.743,0.938,0.743,0.938s0.325-0.599,0.166-1.185
							c-0.159-0.586-0.743-0.938-0.743-0.938S727.741,413.956,727.901,414.543z"/>
						<path style="fill:#7BBFBA;" d="M729.946,414.127c-0.633,0.545-0.724,1.478-0.724,1.478s0.936,0.049,1.569-0.496
							c0.633-0.545,0.724-1.478,0.724-1.478S730.579,413.582,729.946,414.127z"/>
					</g>
				</g>
			</g>
		</g>
		<g>
			<path style="fill:#416793;" d="M378.616,166.728h-15.083c-0.838,0-1.523-0.685-1.523-1.523l0,0c0-0.837,0.685-1.523,1.523-1.523
				h15.083c0.838,0,1.523,0.685,1.523,1.523l0,0C380.139,166.043,379.454,166.728,378.616,166.728z"/>
			<path style="fill:#416793;" d="M386.617,165.205c0,0.841-0.682,1.523-1.523,1.523c-0.841,0-1.523-0.682-1.523-1.523
				s0.682-1.523,1.523-1.523C385.935,163.682,386.617,164.364,386.617,165.205z"/>
		</g>
		<g>
			<g>
				<path style="fill:#FFFFFF;" d="M44.75,98.636c0.629-7.747,7.112-13.84,15.021-13.84c0.822,0,1.628,0.066,2.413,0.193
					c3.4,0.516,6.159-0.605,7.372-3.756c3.568-9.353,12.62-15.997,23.226-15.997c6.644,0,12.675,2.609,17.133,6.856
					c1.874,1.69,4.403,1.633,5.783-0.685c4.931-9.933,15.172-16.762,27.014-16.762c13.412,0,24.778,8.757,28.693,20.866
					c0.498,1.539,2.364,3.414,5.53,2.217c2.274-0.941,4.766-1.461,7.381-1.461c6.254,0,11.812,2.97,15.346,7.575
					c1.395,1.567,3.234,1.682,4.92,0.062c3.448-4.018,8.561-6.564,14.271-6.564c8.581,0,15.816,5.749,18.072,13.605
					c0.663,1.773,2.399,1.777,3.446,1.105c1.93-1.238,4.225-1.958,6.689-1.958c5.505,0,10.153,3.586,11.782,8.544H44.75z"/>
				<path style="fill:#D1DFE8;" d="M73.145,92.804c-4.233-6.395-9.855-7.452-9.911-7.462l0.086-0.492
					c0.059,0.01,5.884,1.095,10.241,7.678L73.145,92.804z"/>
				<path style="fill:#D1DFE8;" d="M165.685,88.201l-0.443-0.231c2.523-4.827,6.239-8.289,11.045-10.292l0.191,0.462
					C171.718,80.123,168.187,83.415,165.685,88.201z"/>
				<path style="fill:#D1DFE8;" d="M119.233,83.531c-3.946-7.415-9.064-10.915-9.116-10.949l0.279-0.415
					c0.052,0.035,5.27,3.597,9.278,11.129L119.233,83.531z"/>
				<path style="fill:#D1DFE8;" d="M236.548,95.744l-0.396-0.304c0.076-0.1,1.902-2.467,4.712-3.979l0.236,0.44
					C238.389,93.36,236.566,95.72,236.548,95.744z"/>
				<path style="fill:#D1DFE8;" d="M131.066,89.749c-2.745-4.204-7.163-6.6-11.829-6.418c-4.32,0.172-8.149,2.564-10.239,6.401
					l-0.439-0.239c2.177-3.993,6.161-6.483,10.659-6.662c4.857-0.179,9.425,2.292,12.267,6.645L131.066,89.749z"/>
				<path style="fill:#D1DFE8;" d="M204.625,94.746c-1.679-2.571-4.399-4.046-7.229-3.924c-2.637,0.104-4.973,1.565-6.248,3.907
					l-0.439-0.239c1.361-2.498,3.854-4.055,6.668-4.168c3.004-0.128,5.891,1.432,7.666,4.15L204.625,94.746z"/>
				<path style="fill:#D1DFE8;" d="M199.164,90.815l-0.404-0.295c2.169-2.964,5.861-6.646,5.898-6.683l0.354,0.354
					C204.974,84.229,201.309,87.883,199.164,90.815z"/>
			</g>
			<g>
				<path style="fill:#FFFFFF;" d="M607.602,102.482c-0.073-0.455-0.113-0.922-0.113-1.398c0-4.803,3.893-8.697,8.696-8.697
					c1.468,0,2.851,0.364,4.064,1.007c1.062,0.563,2.836,0.775,3.572-0.908c1.872-4.572,6.363-7.793,11.609-7.793
					c2.685,0,5.172,0.844,7.211,2.281c1.197,0.844,3.271,0.774,3.952-1.137c2.413-7.201,9.214-12.39,17.227-12.39
					c8.691,0,15.955,6.103,17.743,14.257c0.337,1.619,1.54,2.678,3.881,2.305c0.643-0.13,1.307-0.199,1.989-0.199
					c4.46,0,8.235,2.925,9.516,6.96c0.337,1.07,1.389,1.403,2.45,0.77c1.063-0.713,2.341-1.129,3.717-1.129
					c3.484,0,6.344,2.666,6.655,6.069H607.602z"/>
				<path style="fill:#D1DFE8;" d="M649.36,94.623c-1.912-3.446-4.174-5.838-7.333-7.757l0.26-0.428
					c3.237,1.966,5.554,4.416,7.511,7.942L649.36,94.623z"/>
				<path style="fill:#D1DFE8;" d="M676.88,95.997l-0.42-0.271c3.422-5.284,8.455-5.901,8.668-5.925l0.056,0.497
					C685.134,90.302,680.167,90.92,676.88,95.997z"/>
				<path style="fill:#D1DFE8;" d="M670.563,98.46l-0.355-0.352c1.777-1.798,4.126-2.737,6.448-2.575
					c1.979,0.137,3.702,1.061,4.854,2.601l-0.4,0.3c-1.063-1.423-2.657-2.276-4.487-2.402
					C674.451,95.883,672.236,96.767,670.563,98.46z"/>
				<path style="fill:#D1DFE8;" d="M616.625,96.72l-0.355-0.352c1.777-1.797,4.12-2.735,6.449-2.575
					c1.979,0.137,3.701,1.061,4.852,2.602l-0.4,0.299c-1.063-1.422-2.656-2.275-4.486-2.402
					C620.515,94.145,618.299,95.026,616.625,96.72z"/>
			</g>
			<g>
				<path style="fill:#FFFFFF;" d="M547.377,128.332c1.337,0,3.895,0.21,5.339-2.041c2.66-3.687,6.988-6.088,11.882-6.088
					c4.306,0,8.171,1.861,10.849,4.819c0.984,1.087,3.433,2.186,5.849,1.109c1.18-0.525,2.487-0.816,3.863-0.816
					c3.647,0,6.811,2.047,8.417,5.053c0.464,0.868,1.824,1.739,3.59,1.171c0.884-0.34,1.844-0.527,2.849-0.527
					c2.908,0,5.446,1.553,6.851,3.871h-12.159h-1.542h-52.315c0-0.007-0.002-0.013-0.002-0.019
					C540.846,131.255,543.77,128.332,547.377,128.332z"/>
				<path style="fill:#D1DFE8;" d="M574.56,130.574l-0.379-0.325c2.146-2.505,5.908-3.973,6.067-4.035l0.18,0.467
					C580.39,126.696,576.624,128.166,574.56,130.574z"/>
				<path style="fill:#D1DFE8;" d="M553.732,131.523c-0.011-0.024-1.136-2.447-5.401-2.94l0.057-0.497
					c4.571,0.529,5.754,3.126,5.803,3.237L553.732,131.523z"/>
			</g>
		</g>
		<g>
			<path style="fill:#0F3554;" d="M541.538,403.925H207.089c-5.581,0-10.148-4.566-10.148-10.148V167.792
				c0-5.581,4.566-10.148,10.148-10.148h334.449c5.581,0,10.148,4.566,10.148,10.148v225.986
				C551.686,399.359,547.12,403.925,541.538,403.925z"/>
			<path style="fill:#0F3554;" d="M160.71,403.925v2.298c0,6.721,5.499,12.221,12.221,12.221h402.766
				c6.721,0,12.221-5.499,12.221-12.221v-2.298H160.71z"/>
			<rect x="212.445" y="172.745" style="fill:#AFCBD8;" width="323.738" height="216.079"/>
			<path style="fill:#416793;" d="M401.091,409.951h-53.554c-3.166,0-5.741-2.57-5.741-5.729v-1.483h65.035v1.483
				C406.831,407.381,404.256,409.951,401.091,409.951z M342.796,403.738v0.483c0,2.607,2.127,4.729,4.741,4.729h53.554
				c2.614,0,4.74-2.122,4.74-4.729v-0.483H342.796z"/>
			<g>
				<rect x="307.086" y="86.887" style="fill:#FFFFFF;" width="25.328" height="7.381"/>
				<rect x="351.765" y="86.887" style="fill:#FFFFFF;" width="25.328" height="7.381"/>
				<rect x="407.029" y="86.887" style="fill:#FFFFFF;" width="25.328" height="7.381"/>
				<rect x="295.151" y="97.366" style="fill:#FFFFFF;" width="161.621" height="278.44"/>
				<rect x="289.005" y="375.806" style="fill:#7BBFBA;" width="173.913" height="13.018"/>
				<g>
					<rect x="329.74" y="384.485" style="fill:#FFFFFF;" width="92.443" height="4.339"/>
					<rect x="336.6" y="380.145" style="fill:#FFFFFF;" width="78.724" height="4.339"/>
					<rect x="345.054" y="375.806" style="fill:#FFFFFF;" width="61.814" height="4.339"/>
					<rect x="345.054" y="379.274" style="fill:#8AADC1;" width="61.814" height="0.871"/>
					<rect x="336.6" y="383.613" style="fill:#8AADC1;" width="78.724" height="0.871"/>
				</g>
				<rect x="389.221" y="285.363" style="fill:#F43D4F;" width="67.551" height="44.518"/>
				<rect x="389.221" y="285.363" style="fill:#B72E41;" width="1.483" height="44.518"/>
				<rect x="367.711" y="343.676" style="fill:#445C77;" width="16.405" height="32.13"/>
				<rect x="404.766" y="295.905" style="fill:#FFFFFF;" width="28.221" height="33.977"/>
				<rect x="419.693" y="297.751" style="fill:#445C77;" width="11.777" height="30.39"/>
				<rect x="406.197" y="297.751" style="fill:#445C77;" width="11.777" height="30.39"/>
				<polygon style="fill:#8AADC1;" points="456.772,336.427 295.151,339.37 295.151,335.651 456.772,335.651 				"/>
				<polygon style="fill:#8AADC1;" points="389.221,289.024 295.151,291.967 295.151,288.248 389.221,288.248 				"/>
				<polygon style="fill:#B72E41;" points="456.772,289.639 389.221,293.662 389.221,288.248 456.772,288.248 				"/>
				<g>
					<rect x="396.18" y="322.947" style="fill:#FFFFFF;" width="2.564" height="6.935"/>
					<rect x="425.835" y="322.947" style="fill:#FFFFFF;" width="2.564" height="6.935"/>
					<rect x="455.49" y="322.947" style="fill:#FFFFFF;" width="2.564" height="6.935"/>
					<rect x="440.663" y="322.947" style="fill:#FFFFFF;" width="2.564" height="6.935"/>
					<rect x="411.007" y="322.947" style="fill:#FFFFFF;" width="2.564" height="6.935"/>
				</g>
				<g>
					<rect x="396.18" y="322.947" style="fill:#8AADC1;" width="2.564" height="1.385"/>
					<rect x="425.835" y="322.947" style="fill:#8AADC1;" width="2.564" height="1.385"/>
					<rect x="455.49" y="322.947" style="fill:#8AADC1;" width="2.564" height="1.385"/>
					<rect x="440.663" y="322.947" style="fill:#8AADC1;" width="2.564" height="1.385"/>
					<rect x="411.007" y="322.947" style="fill:#8AADC1;" width="2.564" height="1.385"/>
				</g>
				<rect x="290.961" y="329.881" style="fill:#0F3554;" width="170.001" height="5.77"/>
				<rect x="389.221" y="321.694" style="fill:#FFFFFF;" width="71.74" height="1.253"/>
				<rect x="347.256" y="335.651" style="fill:#F43D4F;" width="7.982" height="40.155"/>
				<rect x="396.684" y="335.651" style="fill:#F43D4F;" width="7.982" height="40.155"/>
				<rect x="347.256" y="335.651" style="fill:#B72E41;" width="7.982" height="1.86"/>
				<rect x="396.684" y="335.651" style="fill:#B72E41;" width="7.982" height="1.86"/>
				<g>
					<g>
						<g>
							<rect x="305.781" y="352.27" style="fill:#445C77;" width="5.028" height="17.741"/>
							<rect x="305.781" y="344.713" style="fill:#445C77;" width="5.028" height="6.03"/>
						</g>
						<g>
							<rect x="311.835" y="352.27" style="fill:#445C77;" width="16.695" height="17.741"/>
							<rect x="311.835" y="344.713" style="fill:#445C77;" width="16.695" height="6.03"/>
						</g>
						<g>
							<rect x="329.556" y="352.27" style="fill:#445C77;" width="5.028" height="17.741"/>
							<rect x="329.556" y="344.713" style="fill:#445C77;" width="5.028" height="6.03"/>
						</g>
					</g>
					<polygon style="fill:#8AADC1;" points="304.538,343.676 303.736,343.676 303.736,372.414 335.765,372.414 335.765,371.549 
						304.538,371.549 					"/>
				</g>
				<g>
					<g>
						<g>
							<rect x="305.781" y="305.149" style="fill:#445C77;" width="5.028" height="17.741"/>
							<rect x="305.781" y="297.592" style="fill:#445C77;" width="5.028" height="6.03"/>
						</g>
						<g>
							<rect x="311.835" y="305.149" style="fill:#445C77;" width="16.695" height="17.741"/>
							<rect x="311.835" y="297.592" style="fill:#445C77;" width="16.695" height="6.03"/>
						</g>
						<g>
							<rect x="329.556" y="305.149" style="fill:#445C77;" width="5.028" height="17.741"/>
							<rect x="329.556" y="297.592" style="fill:#445C77;" width="5.028" height="6.03"/>
						</g>
					</g>
					<polygon style="fill:#8AADC1;" points="304.538,296.555 303.736,296.555 303.736,325.293 335.765,325.293 335.765,324.428 
						304.538,324.428 					"/>
				</g>
				<rect x="389.221" y="237.96" style="fill:#F43D4F;" width="67.551" height="44.518"/>
				<rect x="389.221" y="237.96" style="fill:#B72E41;" width="1.483" height="44.518"/>
				<rect x="290.961" y="235.075" style="fill:#0F3554;" width="170.001" height="5.77"/>
				<rect x="404.766" y="248.501" style="fill:#FFFFFF;" width="28.221" height="33.977"/>
				<rect x="419.693" y="250.348" style="fill:#445C77;" width="11.777" height="30.39"/>
				<rect x="406.197" y="250.348" style="fill:#445C77;" width="11.777" height="30.39"/>
				<polygon style="fill:#8AADC1;" points="389.221,241.621 295.151,244.564 295.151,240.845 389.221,240.845 				"/>
				<polygon style="fill:#B72E41;" points="456.772,242.236 389.221,246.259 389.221,240.845 456.772,240.845 				"/>
				<g>
					<rect x="396.18" y="275.544" style="fill:#FFFFFF;" width="2.564" height="6.935"/>
					<rect x="425.835" y="275.544" style="fill:#FFFFFF;" width="2.564" height="6.935"/>
					<rect x="455.49" y="275.544" style="fill:#FFFFFF;" width="2.564" height="6.935"/>
					<rect x="440.663" y="275.544" style="fill:#FFFFFF;" width="2.564" height="6.935"/>
					<rect x="411.007" y="275.544" style="fill:#FFFFFF;" width="2.564" height="6.935"/>
				</g>
				<g>
					<rect x="396.18" y="275.544" style="fill:#8AADC1;" width="2.564" height="1.385"/>
					<rect x="425.835" y="275.544" style="fill:#8AADC1;" width="2.564" height="1.385"/>
					<rect x="455.49" y="275.544" style="fill:#8AADC1;" width="2.564" height="1.385"/>
					<rect x="440.663" y="275.544" style="fill:#8AADC1;" width="2.564" height="1.385"/>
					<rect x="411.007" y="275.544" style="fill:#8AADC1;" width="2.564" height="1.385"/>
				</g>
				<rect x="389.221" y="274.291" style="fill:#FFFFFF;" width="71.74" height="1.253"/>
				<g>
					<g>
						<g>
							<rect x="305.781" y="257.746" style="fill:#445C77;" width="5.028" height="17.741"/>
							<rect x="305.781" y="250.189" style="fill:#445C77;" width="5.028" height="6.03"/>
						</g>
						<g>
							<rect x="311.835" y="257.746" style="fill:#445C77;" width="16.695" height="17.741"/>
							<rect x="311.835" y="250.189" style="fill:#445C77;" width="16.695" height="6.03"/>
						</g>
						<g>
							<rect x="329.556" y="257.746" style="fill:#445C77;" width="5.028" height="17.741"/>
							<rect x="329.556" y="250.189" style="fill:#445C77;" width="5.028" height="6.03"/>
						</g>
					</g>
					<polygon style="fill:#8AADC1;" points="304.538,249.152 303.736,249.152 303.736,277.891 335.765,277.891 335.765,277.025 
						304.538,277.025 					"/>
				</g>
				<rect x="389.221" y="190.557" style="fill:#F43D4F;" width="67.551" height="44.518"/>
				<rect x="389.221" y="190.557" style="fill:#B72E41;" width="1.483" height="44.518"/>
				<rect x="290.961" y="187.672" style="fill:#0F3554;" width="170.001" height="5.77"/>
				<rect x="404.766" y="201.098" style="fill:#FFFFFF;" width="28.221" height="33.977"/>
				<rect x="419.693" y="202.945" style="fill:#445C77;" width="11.777" height="30.39"/>
				<rect x="406.197" y="202.945" style="fill:#445C77;" width="11.777" height="30.39"/>
				<polygon style="fill:#8AADC1;" points="389.221,194.218 295.151,197.161 295.151,193.442 389.221,193.442 				"/>
				<polygon style="fill:#B72E41;" points="456.772,194.833 389.221,198.856 389.221,193.442 456.772,193.442 				"/>
				<g>
					<rect x="396.18" y="228.141" style="fill:#FFFFFF;" width="2.564" height="6.935"/>
					<rect x="425.835" y="228.141" style="fill:#FFFFFF;" width="2.564" height="6.935"/>
					<rect x="455.49" y="228.141" style="fill:#FFFFFF;" width="2.564" height="6.935"/>
					<rect x="440.663" y="228.141" style="fill:#FFFFFF;" width="2.564" height="6.935"/>
					<rect x="411.007" y="228.141" style="fill:#FFFFFF;" width="2.564" height="6.935"/>
				</g>
				<g>
					<rect x="396.18" y="228.141" style="fill:#8AADC1;" width="2.564" height="1.385"/>
					<rect x="425.835" y="228.141" style="fill:#8AADC1;" width="2.564" height="1.385"/>
					<rect x="455.49" y="228.141" style="fill:#8AADC1;" width="2.564" height="1.385"/>
					<rect x="440.663" y="228.141" style="fill:#8AADC1;" width="2.564" height="1.385"/>
					<rect x="411.007" y="228.141" style="fill:#8AADC1;" width="2.564" height="1.385"/>
				</g>
				<rect x="389.221" y="226.888" style="fill:#FFFFFF;" width="71.74" height="1.253"/>
				<g>
					<g>
						<g>
							<rect x="305.781" y="210.343" style="fill:#445C77;" width="5.028" height="17.741"/>
							<rect x="305.781" y="202.786" style="fill:#445C77;" width="5.028" height="6.03"/>
						</g>
						<g>
							<rect x="311.835" y="210.343" style="fill:#445C77;" width="16.695" height="17.741"/>
							<rect x="311.835" y="202.786" style="fill:#445C77;" width="16.695" height="6.03"/>
						</g>
						<g>
							<rect x="329.556" y="210.343" style="fill:#445C77;" width="5.028" height="17.741"/>
							<rect x="329.556" y="202.786" style="fill:#445C77;" width="5.028" height="6.03"/>
						</g>
					</g>
					<polygon style="fill:#8AADC1;" points="304.538,201.749 303.736,201.749 303.736,230.488 335.765,230.488 335.765,229.622 
						304.538,229.622 					"/>
				</g>
				<g>
					<g>
						<g>
							<rect x="350.027" y="305.149" style="fill:#445C77;" width="5.028" height="17.741"/>
							<rect x="350.027" y="297.592" style="fill:#445C77;" width="5.028" height="6.03"/>
						</g>
						<g>
							<rect x="356.082" y="305.149" style="fill:#445C77;" width="16.695" height="17.741"/>
							<rect x="356.082" y="297.592" style="fill:#445C77;" width="16.695" height="6.03"/>
						</g>
						<g>
							<rect x="373.803" y="305.149" style="fill:#445C77;" width="5.028" height="17.741"/>
							<rect x="373.803" y="297.592" style="fill:#445C77;" width="5.028" height="6.03"/>
						</g>
					</g>
					<polygon style="fill:#8AADC1;" points="348.784,296.555 347.982,296.555 347.982,325.293 380.011,325.293 380.011,324.428 
						348.784,324.428 					"/>
				</g>
				<g>
					<g>
						<g>
							<rect x="350.027" y="257.746" style="fill:#445C77;" width="5.028" height="17.741"/>
							<rect x="350.027" y="250.189" style="fill:#445C77;" width="5.028" height="6.03"/>
						</g>
						<g>
							<rect x="356.082" y="257.746" style="fill:#445C77;" width="16.695" height="17.741"/>
							<rect x="356.082" y="250.189" style="fill:#445C77;" width="16.695" height="6.03"/>
						</g>
						<g>
							<rect x="373.803" y="257.746" style="fill:#445C77;" width="5.028" height="17.741"/>
							<rect x="373.803" y="250.189" style="fill:#445C77;" width="5.028" height="6.03"/>
						</g>
					</g>
					<polygon style="fill:#8AADC1;" points="348.784,249.152 347.982,249.152 347.982,277.891 380.011,277.891 380.011,277.025 
						348.784,277.025 					"/>
				</g>
				<g>
					<g>
						<g>
							<rect x="350.027" y="210.343" style="fill:#445C77;" width="5.028" height="17.741"/>
							<rect x="350.027" y="202.786" style="fill:#445C77;" width="5.028" height="6.03"/>
						</g>
						<g>
							<rect x="356.082" y="210.343" style="fill:#445C77;" width="16.695" height="17.741"/>
							<rect x="356.082" y="202.786" style="fill:#445C77;" width="16.695" height="6.03"/>
						</g>
						<g>
							<rect x="373.803" y="210.343" style="fill:#445C77;" width="5.028" height="17.741"/>
							<rect x="373.803" y="202.786" style="fill:#445C77;" width="5.028" height="6.03"/>
						</g>
					</g>
					<polygon style="fill:#8AADC1;" points="348.784,201.749 347.982,201.749 347.982,230.488 380.011,230.488 380.011,229.622 
						348.784,229.622 					"/>
				</g>
				<rect x="389.221" y="143.154" style="fill:#F43D4F;" width="67.551" height="44.518"/>
				<rect x="389.221" y="143.154" style="fill:#B72E41;" width="1.483" height="44.518"/>
				<rect x="290.961" y="140.269" style="fill:#0F3554;" width="170.001" height="5.77"/>
				<rect x="404.766" y="153.695" style="fill:#FFFFFF;" width="28.221" height="33.977"/>
				<rect x="419.693" y="155.542" style="fill:#445C77;" width="11.777" height="30.39"/>
				<rect x="406.197" y="155.542" style="fill:#445C77;" width="11.777" height="30.39"/>
				<polygon style="fill:#8AADC1;" points="389.221,146.815 295.151,149.758 295.151,146.039 389.221,146.039 				"/>
				<polygon style="fill:#B72E41;" points="456.772,147.43 389.221,151.453 389.221,146.039 456.772,146.039 				"/>
				<g>
					<rect x="396.18" y="180.738" style="fill:#FFFFFF;" width="2.564" height="6.935"/>
					<rect x="425.835" y="180.738" style="fill:#FFFFFF;" width="2.564" height="6.935"/>
					<rect x="455.49" y="180.738" style="fill:#FFFFFF;" width="2.564" height="6.935"/>
					<rect x="440.663" y="180.738" style="fill:#FFFFFF;" width="2.564" height="6.935"/>
					<rect x="411.007" y="180.738" style="fill:#FFFFFF;" width="2.564" height="6.935"/>
				</g>
				<g>
					<rect x="396.18" y="180.738" style="fill:#8AADC1;" width="2.564" height="1.385"/>
					<rect x="425.835" y="180.738" style="fill:#8AADC1;" width="2.564" height="1.385"/>
					<rect x="455.49" y="180.738" style="fill:#8AADC1;" width="2.564" height="1.385"/>
					<rect x="440.663" y="180.738" style="fill:#8AADC1;" width="2.564" height="1.385"/>
					<rect x="411.007" y="180.738" style="fill:#8AADC1;" width="2.564" height="1.385"/>
				</g>
				<rect x="389.221" y="179.484" style="fill:#FFFFFF;" width="71.74" height="1.253"/>
				<g>
					<g>
						<g>
							<rect x="305.781" y="162.94" style="fill:#445C77;" width="5.028" height="17.741"/>
							<rect x="305.781" y="155.383" style="fill:#445C77;" width="5.028" height="6.03"/>
						</g>
						<g>
							<rect x="311.835" y="162.94" style="fill:#445C77;" width="16.695" height="17.741"/>
							<rect x="311.835" y="155.383" style="fill:#445C77;" width="16.695" height="6.03"/>
						</g>
						<g>
							<rect x="329.556" y="162.94" style="fill:#445C77;" width="5.028" height="17.741"/>
							<rect x="329.556" y="155.383" style="fill:#445C77;" width="5.028" height="6.03"/>
						</g>
					</g>
					<polygon style="fill:#8AADC1;" points="304.538,154.346 303.736,154.346 303.736,183.085 335.765,183.085 335.765,182.219 
						304.538,182.219 					"/>
				</g>
				<g>
					<g>
						<g>
							<rect x="350.027" y="162.94" style="fill:#445C77;" width="5.028" height="17.741"/>
							<rect x="350.027" y="155.383" style="fill:#445C77;" width="5.028" height="6.03"/>
						</g>
						<g>
							<rect x="356.082" y="162.94" style="fill:#445C77;" width="16.695" height="17.741"/>
							<rect x="356.082" y="155.383" style="fill:#445C77;" width="16.695" height="6.03"/>
						</g>
						<g>
							<rect x="373.803" y="162.94" style="fill:#445C77;" width="5.028" height="17.741"/>
							<rect x="373.803" y="155.383" style="fill:#445C77;" width="5.028" height="6.03"/>
						</g>
					</g>
					<polygon style="fill:#8AADC1;" points="348.784,154.346 347.982,154.346 347.982,183.085 380.011,183.085 380.011,182.219 
						348.784,182.219 					"/>
				</g>
				<rect x="389.221" y="95.751" style="fill:#F43D4F;" width="67.551" height="44.518"/>
				<rect x="389.221" y="95.751" style="fill:#B72E41;" width="1.483" height="44.518"/>
				<rect x="290.961" y="92.866" style="fill:#0F3554;" width="170.001" height="5.77"/>
				<rect x="404.766" y="106.292" style="fill:#FFFFFF;" width="28.221" height="33.977"/>
				<rect x="419.693" y="108.139" style="fill:#445C77;" width="11.777" height="30.39"/>
				<rect x="406.197" y="108.139" style="fill:#445C77;" width="11.777" height="30.39"/>
				<polygon style="fill:#8AADC1;" points="389.221,99.412 295.151,102.355 295.151,98.636 389.221,98.636 				"/>
				<polygon style="fill:#B72E41;" points="456.772,100.026 389.221,104.05 389.221,98.636 456.772,98.636 				"/>
				<g>
					<rect x="396.18" y="133.335" style="fill:#FFFFFF;" width="2.564" height="6.935"/>
					<rect x="425.835" y="133.335" style="fill:#FFFFFF;" width="2.564" height="6.935"/>
					<rect x="455.49" y="133.335" style="fill:#FFFFFF;" width="2.564" height="6.935"/>
					<rect x="440.663" y="133.335" style="fill:#FFFFFF;" width="2.564" height="6.935"/>
					<rect x="411.007" y="133.335" style="fill:#FFFFFF;" width="2.564" height="6.935"/>
				</g>
				<g>
					<rect x="396.18" y="133.335" style="fill:#8AADC1;" width="2.564" height="1.385"/>
					<rect x="425.835" y="133.335" style="fill:#8AADC1;" width="2.564" height="1.385"/>
					<rect x="455.49" y="133.335" style="fill:#8AADC1;" width="2.564" height="1.385"/>
					<rect x="440.663" y="133.335" style="fill:#8AADC1;" width="2.564" height="1.385"/>
					<rect x="411.007" y="133.335" style="fill:#8AADC1;" width="2.564" height="1.385"/>
				</g>
				<rect x="389.221" y="132.081" style="fill:#FFFFFF;" width="71.74" height="1.253"/>
				<g>
					<g>
						<g>
							<rect x="305.781" y="115.537" style="fill:#445C77;" width="5.028" height="17.741"/>
							<rect x="305.781" y="107.98" style="fill:#445C77;" width="5.028" height="6.03"/>
						</g>
						<g>
							<rect x="311.835" y="115.537" style="fill:#445C77;" width="16.695" height="17.741"/>
							<rect x="311.835" y="107.98" style="fill:#445C77;" width="16.695" height="6.03"/>
						</g>
						<g>
							<rect x="329.556" y="115.537" style="fill:#445C77;" width="5.028" height="17.741"/>
							<rect x="329.556" y="107.98" style="fill:#445C77;" width="5.028" height="6.03"/>
						</g>
					</g>
					<polygon style="fill:#8AADC1;" points="304.538,106.943 303.736,106.943 303.736,135.682 335.765,135.682 335.765,134.816 
						304.538,134.816 					"/>
				</g>
				<g>
					<g>
						<g>
							<rect x="350.027" y="115.537" style="fill:#445C77;" width="5.028" height="17.741"/>
							<rect x="350.027" y="107.98" style="fill:#445C77;" width="5.028" height="6.03"/>
						</g>
						<g>
							<rect x="356.082" y="115.537" style="fill:#445C77;" width="16.695" height="17.741"/>
							<rect x="356.082" y="107.98" style="fill:#445C77;" width="16.695" height="6.03"/>
						</g>
						<g>
							<rect x="373.803" y="115.537" style="fill:#445C77;" width="5.028" height="17.741"/>
							<rect x="373.803" y="107.98" style="fill:#445C77;" width="5.028" height="6.03"/>
						</g>
					</g>
					<polygon style="fill:#8AADC1;" points="348.784,106.943 347.982,106.943 347.982,135.682 380.011,135.682 380.011,134.816 
						348.784,134.816 					"/>
				</g>
				<g>
					<g>
						<g>
							<rect x="414.501" y="352.27" style="fill:#445C77;" width="5.939" height="17.741"/>
							<rect x="414.501" y="344.713" style="fill:#445C77;" width="5.939" height="6.03"/>
						</g>
						<g>
							<rect x="421.652" y="352.27" style="fill:#445C77;" width="19.718" height="17.741"/>
							<rect x="421.652" y="344.713" style="fill:#445C77;" width="19.718" height="6.03"/>
						</g>
						<g>
							<rect x="442.582" y="352.27" style="fill:#445C77;" width="5.939" height="17.741"/>
							<rect x="442.582" y="344.713" style="fill:#445C77;" width="5.939" height="6.03"/>
						</g>
					</g>
					<polygon style="fill:#8AADC1;" points="413.033,343.676 412.086,343.676 412.086,372.414 449.915,372.414 449.915,371.549 
						413.033,371.549 					"/>
				</g>
				<g>
					<rect x="365.982" y="343.676" style="fill:#8AADC1;" width="0.522" height="32.13"/>
					<rect x="385.324" y="343.676" style="fill:#8AADC1;" width="0.522" height="32.13"/>
				</g>
				<rect x="364.456" y="341.25" style="fill:#F43D4F;" width="22.915" height="2.426"/>
				<rect x="290.961" y="282.478" style="fill:#0F3554;" width="170.001" height="5.77"/>
			</g>
			<g>
				<g>
					<path style="fill:#479DA3;" d="M212.445,388.915h32.107c-0.452-1.673-1.614-2.984-2.948-3.58
						c-1.433-0.641-3.023-0.544-4.494-0.061c0.27-0.089,0.634-0.646,0.823-0.881c0.454-0.565,0.818-1.158,0.922-1.936
						c0.116-0.869-0.106-1.752-0.579-2.44c-0.791-1.149-2.168-1.562-3.401-1.414c-0.062,0.007-0.123,0.016-0.185,0.027
						c-0.241,0.042-0.478,0.111-0.706,0.212c-0.988,0.441-1.86,1.213-2.607,2.063c-0.14,0.16-0.28,0.323-0.408,0.497
						c0,0,2.087-1.986,2.578-3.495c1.812-4.288-2.02-10.513-6.788-8.751c-1.916,0.924-3.48,2.815-4.512,5.043
						c3.815-6.536-2.509-10.507-4.755-4.625c1.389-4.849-0.683-9.92-4.87-7.075c-0.062,0.025-0.115,0.058-0.176,0.085V388.915z"/>
					<path style="fill:#7BBFBA;" d="M212.445,388.915h18.916c-0.266-0.986-0.951-1.758-1.737-2.109
						c-0.844-0.377-1.781-0.32-2.648-0.036c0.442-0.984-0.162-2.312-1.008-2.695c-0.846-0.384-1.794-0.064-2.609,0.415
						c0.703-0.376,1.23-1.17,1.519-2.059c1.067-2.526-1.19-6.194-3.999-5.156c-1.129,0.545-2.05,1.658-2.659,2.971
						c2.247-3.851-1.478-6.19-2.801-2.725c1.287-3.79-1.197-6.013-2.973-5.158V388.915z"/>
					<path style="fill:#479DA3;" d="M232.059,368.207c-0.508,0.523-1.243,0.453-1.243,0.453s0.089-0.919,0.597-1.442
						c0.508-0.523,1.243-0.453,1.243-0.453S232.567,367.684,232.059,368.207z"/>
					<path style="fill:#7BBFBA;" d="M217.467,374.28c-0.378,0.78-1.193,1.016-1.193,1.016s-0.202-1.028,0.176-1.808
						s1.193-1.016,1.193-1.016S217.845,373.5,217.467,374.28z"/>
					<path style="fill:#479DA3;" d="M230.518,366.137c0.216,1.102-0.288,2.205-0.288,2.205s-0.855-0.683-1.071-1.784
						c-0.216-1.102,0.289-2.205,0.289-2.205S230.301,365.035,230.518,366.137z"/>
				</g>
				<g>
					<polygon style="fill:#994F61;" points="507.438,388.824 506.63,377.11 513.112,369.603 512.715,369.282 508.893,372.554 
						508.334,369.282 507.729,369.439 507.834,373.518 506.277,375.031 505.687,363.061 508.859,359.132 508.507,358.829 
						505.22,361.457 505.007,355.199 504.151,355.199 503.583,362.894 502.752,370.542 498.472,365.9 498.069,366.165 
						499.63,368.622 496.91,368.585 496.91,369.038 499.882,369.492 502.802,374.067 502.138,388.824 					"/>
					<path style="fill:#479DA3;" d="M479.764,346.453c-0.052-1.46,0.056-2.964,0.67-4.29c0.613-1.326,1.81-2.45,3.257-2.657
						c0.836-0.12,1.77,0.114,2.285,0.783c-1.631-2.027-3.119-4.248-3.762-6.769c-0.643-2.521-0.322-5.401,1.355-7.39
						c1.614-1.914,4.311-2.74,6.788-2.376c2.477,0.364,4.716,1.811,6.345,3.712c-0.176-3.914-1.077-7.859-0.361-11.71
						c0.716-3.852,3.776-7.707,7.69-7.534c2.653,0.117,4.885,2.017,6.576,4.065c3.509,4.248,5.673,9.59,6.109,15.082
						c1.018-1.399,2.054-2.817,3.414-3.886c1.36-1.069,3.112-1.762,4.819-1.483c2.809,0.458,4.596,3.318,5.28,6.08
						c0.73,2.949,0.624,6.1-0.301,8.994c-1.53,4.783-5.119,8.579-8.6,12.199c1.598-0.713,3.615,0.249,4.389,1.819
						c1.052,2.134,0.05,4.591-1.41,6.287c-1.229,1.428-2.856,2.458-4.54,3.303c-9.43,4.735-20.908,4.051-30.423-0.07
						c-3.534-1.53-6-4.06-7.878-7.444c-0.007-0.013-0.014-0.025-0.021-0.038C480.324,351.104,479.847,348.768,479.764,346.453z"/>
					<path style="fill:#479DA3;" d="M510.054,366.316c0.442-0.511,1.741-0.713,1.718,0.219c0.383-2.881,4.146-1.788,2.389,0.963
						c2.892-3.005,5.456,0.84,1.712,2.554c3.181,0.064,1.405,4.603-1.385,2.624c1.129,0.678,0.41,2.167-0.806,1.973
						C510.443,374.117,507.137,368.957,510.054,366.316z"/>
					<path style="fill:#7BBFBA;" d="M515.701,357.819c0.261-0.768,0.443-1.585,0.329-2.388c-0.115-0.803-0.571-1.592-1.307-1.933
						c-0.425-0.197-0.96-0.222-1.34,0.051c1.191-0.817,2.337-1.761,3.082-2.999c0.744-1.238,1.034-2.821,0.46-4.146
						c-0.553-1.276-1.855-2.146-3.231-2.348c-1.375-0.202-2.797,0.21-3.967,0.961c0.719-2.053,1.828-4.007,2.063-6.17
						c0.234-2.163-0.777-4.702-2.886-5.235c-1.43-0.361-2.92,0.292-4.147,1.111c-2.545,1.698-4.549,4.194-5.658,7.045
						c-0.318-0.907-0.642-1.826-1.195-2.612c-0.553-0.786-1.373-1.434-2.326-1.559c-1.567-0.205-2.974,1.03-3.779,2.39
						c-0.859,1.452-1.306,3.145-1.276,4.831c0.05,2.788,1.352,5.38,2.625,7.861c-0.736-0.634-1.962-0.445-2.625,0.266
						c-0.9,0.967-0.76,2.434-0.255,3.569c0.425,0.956,1.126,1.763,1.886,2.482c4.259,4.025,10.472,5.494,16.19,4.823
						c2.124-0.249,3.839-1.201,5.379-2.7c0.006-0.006,0.012-0.011,0.017-0.017C514.661,360.203,515.287,359.037,515.701,357.819z"/>
					<path style="fill:#479DA3;" d="M526.389,348.006c-0.542,0.981-0.22,2.197-0.22,2.197s1.2-0.376,1.741-1.357
						c0.542-0.981,0.22-2.197,0.22-2.197S526.931,347.025,526.389,348.006z"/>
					<path style="fill:#479DA3;" d="M529.633,350.081c-1.539-0.091-2.856,1.029-2.856,1.029s1.177,1.266,2.716,1.357
						c1.539,0.091,2.856-1.029,2.856-1.029S531.172,350.171,529.633,350.081z"/>
					<path style="fill:#479DA3;" d="M495.879,369.945c0.552-0.231,0.82-0.846,0.82-0.846s-0.626-0.24-1.178-0.009
						s-0.82,0.846-0.82,0.846S495.327,370.176,495.879,369.945z"/>
					<path style="fill:#479DA3;" d="M495.209,368.002c0.614,0.548,1.536,0.516,1.536,0.516s-0.073-0.92-0.687-1.468
						c-0.614-0.548-1.536-0.516-1.536-0.516S494.595,367.454,495.209,368.002z"/>
					<path style="fill:#7BBFBA;" d="M496.048,335.793c0.782,0.803,2.039,0.847,2.039,0.847s-0.012-1.257-0.794-2.06
						c-0.782-0.803-2.039-0.847-2.039-0.847S495.266,334.991,496.048,335.793z"/>
					<path style="fill:#7BBFBA;" d="M514.963,342.162c-0.727,0.277-1.101,1.065-1.101,1.065s0.804,0.339,1.531,0.061
						c0.727-0.277,1.101-1.065,1.101-1.065S515.69,341.885,514.963,342.162z"/>
					<path style="fill:#7BBFBA;" d="M498.973,333.29c-0.533,1.446,0.157,3.032,0.157,3.032s1.553-0.76,2.086-2.206
						c0.533-1.446-0.157-3.032-0.157-3.032S499.506,331.844,498.973,333.29z"/>
					<path style="fill:#7BBFBA;" d="M511.93,372.948c0.285,0.038,0.57,0.045,0.831,0.012c0.388-0.049,0.772-0.217,1.02-0.519
						c0.209-0.254,0.325-0.659,0.208-0.982c-0.169-0.467-0.779-0.356-1.06-0.708c-0.154-0.193-0.155-0.465-0.123-0.71
						c0.032-0.245,0.091-0.495,0.032-0.735c-0.059-0.24-0.289-0.461-0.53-0.407c-0.182,0.041-0.295,0.217-0.414,0.344
						c-0.074,0.078-0.17,0.147-0.277,0.145c-0.456-0.011-0.563-0.689-1.04-0.604c-0.497,0.088-0.78,0.611-0.918,1.049
						c-0.242,0.771-0.125,1.612,0.403,2.239C510.535,372.634,511.226,372.854,511.93,372.948z"/>
				</g>
				<g>
					<polygon style="fill:#994F61;" points="270.179,388.824 269.597,380.388 274.266,374.981 273.979,374.75 271.227,377.106 
						270.824,374.75 270.389,374.863 270.464,377.801 269.343,378.89 268.918,370.27 271.203,367.44 270.949,367.222 
						268.582,369.115 268.428,364.608 267.812,364.608 267.403,370.149 266.804,375.658 263.722,372.314 263.431,372.505 
						264.556,374.275 262.597,374.248 262.597,374.575 264.737,374.901 266.841,378.197 266.362,388.824 					"/>
					<path style="fill:#479DA3;" d="M250.249,358.309c-0.037-1.051,0.041-2.135,0.482-3.089c0.442-0.955,1.304-1.764,2.345-1.914
						c0.602-0.086,1.275,0.082,1.646,0.564c-1.175-1.46-2.246-3.059-2.709-4.875c-0.463-1.815-0.232-3.89,0.976-5.322
						c1.163-1.378,3.105-1.973,4.889-1.711s3.397,1.304,4.57,2.673c-0.127-2.819-0.776-5.66-0.26-8.434
						c0.516-2.774,2.72-5.551,5.538-5.426c1.911,0.085,3.518,1.453,4.736,2.927c2.527,3.059,4.085,6.907,4.4,10.862
						c0.733-1.008,1.479-2.029,2.459-2.798c0.98-0.77,2.241-1.269,3.471-1.068c2.023,0.33,3.31,2.389,3.802,4.379
						c0.526,2.124,0.45,4.393-0.217,6.478c-1.102,3.444-3.687,6.179-6.194,8.785c1.151-0.513,2.604,0.179,3.161,1.31
						c0.758,1.537,0.036,3.306-1.015,4.528c-0.885,1.028-2.057,1.77-3.269,2.379c-6.791,3.41-15.057,2.918-21.911-0.05
						c-2.545-1.102-4.321-2.924-5.674-5.361c-0.005-0.009-0.01-0.018-0.015-0.028C250.652,361.658,250.308,359.976,250.249,358.309z
						"/>
					<path style="fill:#479DA3;" d="M272.063,372.614c0.318-0.368,1.254-0.514,1.237,0.158c0.276-2.075,2.986-1.288,1.72,0.694
						c2.083-2.164,3.929,0.605,1.233,1.839c2.291,0.046,1.012,3.315-0.997,1.89c0.813,0.488,0.295,1.561-0.581,1.421
						C272.343,378.232,269.962,374.516,272.063,372.614z"/>
					<path style="fill:#7BBFBA;" d="M276.13,366.494c0.188-0.553,0.319-1.142,0.237-1.72c-0.082-0.578-0.412-1.147-0.942-1.392
						c-0.306-0.142-0.691-0.16-0.965,0.037c0.858-0.589,1.683-1.268,2.219-2.16c0.536-0.892,0.745-2.031,0.331-2.986
						c-0.398-0.919-1.336-1.545-2.327-1.691c-0.991-0.145-2.015,0.151-2.857,0.692c0.518-1.479,1.317-2.886,1.485-4.444
						c0.169-1.558-0.56-3.386-2.079-3.77c-1.03-0.26-2.103,0.211-2.986,0.8c-1.833,1.223-3.276,3.02-4.075,5.074
						c-0.229-0.653-0.462-1.315-0.861-1.881c-0.398-0.566-0.989-1.033-1.675-1.122c-1.128-0.147-2.142,0.742-2.722,1.721
						c-0.619,1.046-0.941,2.265-0.919,3.479c0.036,2.008,0.974,3.875,1.891,5.661c-0.53-0.457-1.413-0.321-1.89,0.192
						c-0.648,0.696-0.547,1.753-0.183,2.57c0.306,0.688,0.811,1.27,1.359,1.788c3.067,2.898,7.542,3.957,11.66,3.473
						c1.53-0.18,2.765-0.865,3.874-1.945c0.004-0.004,0.008-0.008,0.013-0.012C275.381,368.211,275.832,367.372,276.13,366.494z"/>
					<path style="fill:#479DA3;" d="M283.828,359.428c-0.39,0.707-0.158,1.582-0.158,1.582s0.864-0.271,1.254-0.978
						c0.39-0.707,0.158-1.582,0.158-1.582S284.217,358.721,283.828,359.428z"/>
					<path style="fill:#479DA3;" d="M286.164,360.922c-1.108-0.065-2.057,0.741-2.057,0.741s0.848,0.912,1.956,0.977
						c1.108,0.065,2.057-0.741,2.057-0.741S287.272,360.987,286.164,360.922z"/>
					<path style="fill:#479DA3;" d="M261.854,375.227c0.397-0.167,0.591-0.61,0.591-0.61s-0.451-0.173-0.849-0.007
						c-0.397,0.167-0.59,0.609-0.59,0.609S261.457,375.394,261.854,375.227z"/>
					<path style="fill:#479DA3;" d="M261.372,373.828c0.442,0.395,1.106,0.372,1.106,0.372s-0.053-0.663-0.495-1.057
						c-0.442-0.395-1.106-0.372-1.106-0.372S260.93,373.434,261.372,373.828z"/>
					<path style="fill:#7BBFBA;" d="M261.976,350.632c0.563,0.578,1.468,0.61,1.468,0.61s-0.009-0.905-0.572-1.483
						c-0.563-0.578-1.468-0.61-1.468-0.61S261.413,350.054,261.976,350.632z"/>
					<path style="fill:#7BBFBA;" d="M275.598,355.219c-0.523,0.2-0.793,0.767-0.793,0.767s0.579,0.244,1.103,0.044
						c0.523-0.2,0.793-0.767,0.793-0.767S276.122,355.019,275.598,355.219z"/>
					<path style="fill:#7BBFBA;" d="M264.083,348.829c-0.384,1.042,0.113,2.183,0.113,2.183s1.118-0.547,1.502-1.589
						c0.384-1.042-0.113-2.184-0.113-2.184S264.466,347.788,264.083,348.829z"/>
					<path style="fill:#7BBFBA;" d="M273.414,377.39c0.205,0.027,0.411,0.032,0.598,0.009c0.279-0.035,0.556-0.156,0.735-0.373
						c0.151-0.183,0.234-0.474,0.15-0.707c-0.122-0.336-0.561-0.257-0.763-0.51c-0.111-0.139-0.112-0.335-0.089-0.511
						c0.023-0.176,0.065-0.357,0.023-0.529c-0.043-0.172-0.208-0.332-0.381-0.293c-0.131,0.03-0.212,0.156-0.298,0.248
						c-0.053,0.056-0.122,0.106-0.199,0.104c-0.328-0.008-0.406-0.496-0.749-0.435c-0.358,0.063-0.562,0.44-0.661,0.755
						c-0.175,0.555-0.091,1.161,0.29,1.612C272.41,377.164,272.907,377.323,273.414,377.39z"/>
				</g>
				<g>
					<polygon style="fill:#0F3554;" points="241.858,388.824 237.45,388.824 238.286,377.362 241.023,377.362 					"/>
					<rect x="238.933" y="339.226" style="fill:#0F3554;" width="1.442" height="49.597"/>
					<polygon style="fill:#0F3554;" points="241.929,339.226 237.379,339.226 235.709,330.979 243.6,330.979 					"/>
					<polygon style="fill:#FFFFFF;" points="241.086,337.698 238.223,337.698 237.171,332.508 242.137,332.508 					"/>
					<polygon style="fill:#0F3554;" points="241.929,328.882 237.379,328.882 235.709,330.979 243.6,330.979 					"/>
					<path style="fill:#0F3554;" d="M242.271,339.226h-5.225c-0.235,0-0.427-0.192-0.427-0.427l0,0c0-0.235,0.192-0.427,0.427-0.427
						h5.225c0.235,0,0.427,0.192,0.427,0.427l0,0C242.698,339.034,242.506,339.226,242.271,339.226z"/>
					<path style="fill:#0F3554;" d="M241.085,377.788h-2.853c-0.235,0-0.427-0.192-0.427-0.427l0,0c0-0.235,0.192-0.427,0.427-0.427
						h2.853c0.235,0,0.426,0.192,0.426,0.427l0,0C241.512,377.596,241.32,377.788,241.085,377.788z"/>
					<path style="fill:#0F3554;" d="M240.898,328.882c0,0.685-0.555,1.24-1.24,1.24c-0.685,0-1.24-0.555-1.24-1.24
						c0-0.685,0.555-1.24,1.24-1.24C240.344,327.642,240.898,328.198,240.898,328.882z"/>
				</g>
				<g>
					<polygon style="fill:#0F3554;" points="474.479,388.824 470.071,388.824 470.906,377.362 473.643,377.362 					"/>
					<rect x="471.553" y="339.226" style="fill:#0F3554;" width="1.442" height="49.597"/>
					<polygon style="fill:#0F3554;" points="474.55,339.226 470,339.226 468.329,330.979 476.22,330.979 					"/>
					<polygon style="fill:#FFFFFF;" points="473.706,337.698 470.843,337.698 469.792,332.508 474.758,332.508 					"/>
					<polygon style="fill:#0F3554;" points="474.55,328.882 470,328.882 468.329,330.979 476.22,330.979 					"/>
					<path style="fill:#0F3554;" d="M474.892,339.226h-5.225c-0.235,0-0.427-0.192-0.427-0.427l0,0c0-0.235,0.192-0.427,0.427-0.427
						h5.225c0.235,0,0.427,0.192,0.427,0.427l0,0C475.319,339.034,475.126,339.226,474.892,339.226z"/>
					<path style="fill:#0F3554;" d="M473.706,377.788h-2.853c-0.235,0-0.427-0.192-0.427-0.427l0,0c0-0.235,0.192-0.427,0.427-0.427
						h2.853c0.235,0,0.427,0.192,0.427,0.427l0,0C474.132,377.596,473.94,377.788,473.706,377.788z"/>
					<path style="fill:#0F3554;" d="M473.519,328.882c0,0.685-0.555,1.24-1.24,1.24s-1.24-0.555-1.24-1.24
						c0-0.685,0.555-1.24,1.24-1.24S473.519,328.198,473.519,328.882z"/>
				</g>
			</g>
			<g>
				<g>
					<g>
						<path style="fill:#479DA3;" d="M428.387,397.106c4.159-13.212,21.2-15.292,26.823-2.536c7.032-1.931,12.692,0.578,17.31,5.708
							c2.268-2.867,7.649-3.987,11.65-1.647c3.222-10.234,16.423-11.846,20.779-1.964c6.603-1.813,11.647,1.419,15.583,7.208
							h-45.206h-7.896h-60.654C413.406,398.254,420.41,394.823,428.387,397.106z"/>
					</g>
					<g>
						<path style="fill:#7BBFBA;" d="M444.387,403.784c0,0,5.005-4.502,15.162-3.378c2.89-2.739,6.359-3.967,10.565-2.813
							c3.741-8.487,15.078-7.103,17.845,1.687c5.307-1.519,9.967,0.763,14.378,4.503H444.387z"/>
					</g>
					<g>
						<path style="fill:#7BBFBA;" d="M393.012,403.784c2.817-4.143,7.287-4.165,12.014-2.867c3.118-7.074,14.545-6.706,16.851,0.62
							c8.553-2.936,12.301,2.247,12.301,2.247H393.012z"/>
					</g>
					<g>
						<path style="fill:#479DA3;" d="M441.055,383.718c0.536,1.04,1.776,1.467,1.776,1.467s0.372-1.258-0.164-2.298
							c-0.536-1.04-1.776-1.467-1.776-1.467S440.519,382.678,441.055,383.718z"/>
						<path style="fill:#479DA3;" d="M444.738,382.113c-0.973,1.281-0.768,3.073-0.768,3.073s1.781-0.284,2.754-1.565
							c0.973-1.281,0.769-3.073,0.769-3.073S445.711,380.832,444.738,382.113z"/>
					</g>
					<g>
						<path style="fill:#7BBFBA;" d="M492.732,396.166c0.307,1.129,1.43,1.806,1.43,1.806s0.626-1.153,0.319-2.281
							c-0.307-1.128-1.43-1.806-1.43-1.806S492.425,395.037,492.732,396.166z"/>
						<path style="fill:#7BBFBA;" d="M496.668,395.365c-1.219,1.049-1.393,2.845-1.393,2.845s1.802,0.094,3.02-0.955
							c1.219-1.049,1.393-2.845,1.393-2.845S497.887,394.316,496.668,395.365z"/>
					</g>
				</g>
				<g>
					<g>
						<path style="fill:#479DA3;" d="M260.136,398.991c-3.001-9.533-15.297-11.034-19.355-1.83
							c-5.074-1.393-9.158,0.417-12.491,4.119c-1.636-2.068-5.52-2.877-8.406-1.189c-2.325-7.385-11.85-8.548-14.993-1.417
							c-4.765-1.309-8.404,1.024-11.244,5.201h32.619h5.698h43.766C270.945,399.819,265.892,397.343,260.136,398.991z"/>
					</g>
					<g>
						<path style="fill:#7BBFBA;" d="M248.591,403.809c0,0-3.611-3.249-10.94-2.437c-2.086-1.977-4.589-2.863-7.623-2.03
							c-2.7-6.124-10.88-5.125-12.877,1.217c-3.829-1.096-7.192,0.551-10.375,3.249H248.591z"/>
					</g>
					<g>
						<path style="fill:#7BBFBA;" d="M285.662,403.809c-2.033-2.99-5.258-3.006-8.669-2.069c-2.25-5.104-10.495-4.839-12.159,0.448
							c-6.172-2.119-8.876,1.621-8.876,1.621H285.662z"/>
					</g>
					<g>
						<path style="fill:#479DA3;" d="M250.995,389.33c-0.387,0.75-1.281,1.059-1.281,1.059s-0.268-0.908,0.118-1.658
							c0.387-0.75,1.281-1.059,1.281-1.059S251.382,388.58,250.995,389.33z"/>
						<path style="fill:#479DA3;" d="M248.338,388.172c0.702,0.924,0.555,2.217,0.555,2.217s-1.285-0.205-1.987-1.129
							c-0.702-0.924-0.555-2.217-0.555-2.217S247.636,387.248,248.338,388.172z"/>
					</g>
					<g>
						<path style="fill:#7BBFBA;" d="M213.707,398.312c-0.221,0.814-1.032,1.303-1.032,1.303s-0.452-0.832-0.23-1.646
							c0.221-0.814,1.032-1.303,1.032-1.303S213.928,397.498,213.707,398.312z"/>
						<path style="fill:#7BBFBA;" d="M210.866,397.735c0.879,0.757,1.005,2.053,1.005,2.053s-1.3,0.068-2.179-0.689
							c-0.879-0.757-1.005-2.053-1.005-2.053S209.987,396.978,210.866,397.735z"/>
					</g>
				</g>
			</g>
			<g>
				<g>
					<path style="fill:#D1DFE8;" d="M299.699,303.065c-1.248,0.016-2.435,0.282-3.51,0.76c-2.266,1.011-4.564-0.02-5.488-1.04
						c-2.513-2.776-6.139-4.522-10.179-4.522c-4.592,0-8.652,2.253-11.147,5.712c-1.355,2.112-3.754,1.915-5.009,1.915
						c-3.384,0-6.127,2.743-6.127,6.127c0,0.006,0.002,0.012,0.002,0.018h41.457V303.065z"/>
					<path style="fill:#AFCBD8;" d="M289.881,308.005l-0.379-0.326c2.018-2.354,5.55-3.732,5.699-3.79l0.18,0.467
						C295.346,304.369,291.815,305.748,289.881,308.005z"/>
					<path style="fill:#AFCBD8;" d="M270.315,308.891c-0.011-0.022-1.064-2.288-5.056-2.75l0.057-0.496
						c4.298,0.497,5.411,2.941,5.457,3.046L270.315,308.891z"/>
				</g>
				<g>
					<path style="fill:#FFFFFF;" d="M212.445,268.734h70.034c-0.31-3.403-3.171-6.069-6.655-6.069c-1.376,0-2.654,0.416-3.717,1.128
						c-1.06,0.633-2.113,0.301-2.45-0.77c-1.281-4.036-5.056-6.96-9.516-6.96c-0.681,0-1.346,0.068-1.989,0.199
						c-2.341,0.373-3.544-0.686-3.881-2.305c-1.788-8.154-9.052-14.257-17.743-14.257c-8.013,0-14.814,5.189-17.227,12.39
						c-0.681,1.911-2.754,1.981-3.952,1.137c-0.889-0.627-1.867-1.132-2.906-1.512V268.734z"/>
					<path style="fill:#AFCBD8;" d="M222.07,260.875c-1.912-3.445-4.174-5.838-7.333-7.757l0.26-0.428
						c3.237,1.967,5.554,4.416,7.511,7.942L222.07,260.875z"/>
					<path style="fill:#AFCBD8;" d="M249.59,262.248l-0.42-0.271c3.422-5.283,8.455-5.901,8.668-5.925l0.056,0.496
						C257.844,256.554,252.877,257.172,249.59,262.248z"/>
					<path style="fill:#AFCBD8;" d="M243.273,264.712l-0.355-0.352c1.778-1.798,4.145-2.744,6.45-2.575
						c1.978,0.137,3.7,1.061,4.852,2.602l-0.4,0.299c-1.063-1.422-2.655-2.275-4.485-2.402
						C247.158,262.14,244.948,263.019,243.273,264.712z"/>
				</g>
				<g>
					<path style="fill:#FFFFFF;" d="M536.183,290.165c-1.248,0.016-2.435,0.282-3.51,0.76c-2.266,1.011-4.564-0.02-5.488-1.04
						c-2.512-2.776-6.139-4.522-10.179-4.522c-4.592,0-8.652,2.253-11.147,5.712c-1.355,2.112-3.755,1.915-5.009,1.915
						c-3.384,0-6.127,2.743-6.127,6.127c0,0.006,0.002,0.012,0.002,0.018h41.457V290.165z"/>
					<path style="fill:#AFCBD8;" d="M526.364,295.104l-0.379-0.326c2.018-2.352,5.55-3.731,5.699-3.789l0.18,0.467
						C531.829,291.47,528.299,292.849,526.364,295.104z"/>
					<path style="fill:#AFCBD8;" d="M506.798,295.991c-0.011-0.022-1.064-2.288-5.055-2.75l0.057-0.496
						c4.297,0.497,5.41,2.941,5.456,3.046L506.798,295.991z"/>
				</g>
			</g>
		</g>
		<g>
			<g>
				<path style="fill:#FFFFFF;" d="M161.147,232.704h-11.01l5.497,19.615l-14.437-19.615H58.988c-3.446,0-6.265-2.819-6.265-6.265
					v-18.215c0-3.446,2.819-6.265,6.265-6.265h102.159c3.446,0,6.265,2.819,6.265,6.265v18.215
					C167.412,229.885,164.593,232.704,161.147,232.704z"/>
				<polygon style="fill:#FCBE4F;" points="109.5,208.792 107.636,214.529 101.603,214.529 106.484,218.074 104.62,223.811 
					109.5,220.266 114.38,223.811 112.516,218.074 117.396,214.529 111.364,214.529 				"/>
				<polygon style="fill:#FCBE4F;" points="88.352,208.792 86.488,214.529 80.456,214.529 85.336,218.074 83.472,223.811 
					88.352,220.266 93.232,223.811 91.368,218.074 96.248,214.529 90.216,214.529 				"/>
				<polygon style="fill:#FCBE4F;" points="67.204,208.792 65.34,214.529 59.308,214.529 64.188,218.074 62.324,223.811 
					67.204,220.266 72.084,223.811 70.22,218.074 75.1,214.529 69.068,214.529 				"/>
				<polygon style="fill:#FFEED4;" points="151.796,208.792 149.932,214.529 143.899,214.529 148.78,218.074 146.915,223.811 
					151.796,220.266 156.676,223.811 154.812,218.074 159.692,214.529 153.66,214.529 				"/>
				<polygon style="fill:#FFEED4;" points="130.648,208.792 128.784,214.529 122.751,214.529 127.632,218.074 125.768,223.811 
					130.648,220.266 135.528,223.811 133.664,218.074 138.544,214.529 132.512,214.529 				"/>
			</g>
			<g>
				<path style="fill:#FFFFFF;" d="M619.127,210.392h11.01l-10.701,21.562l20.906-21.562h80.944c3.446,0,6.265-2.819,6.265-6.265
					v-18.215c0-3.446-2.819-6.265-6.265-6.265H619.127c-3.446,0-6.265,2.819-6.265,6.265v18.215
					C612.863,207.573,615.682,210.392,619.127,210.392z"/>
				<polygon style="fill:#FCBE4F;" points="670.775,186.48 668.911,192.217 662.878,192.217 667.759,195.762 665.894,201.499 
					670.775,197.954 675.655,201.499 673.791,195.762 678.671,192.217 672.639,192.217 				"/>
				<polygon style="fill:#FCBE4F;" points="649.627,186.48 647.763,192.217 641.73,192.217 646.611,195.762 644.747,201.499 
					649.627,197.954 654.507,201.499 652.643,195.762 657.523,192.217 651.491,192.217 				"/>
				<polygon style="fill:#FCBE4F;" points="628.479,186.48 626.615,192.217 620.583,192.217 625.463,195.762 623.599,201.499 
					628.479,197.954 633.359,201.499 631.495,195.762 636.375,192.217 630.343,192.217 				"/>
				<polygon style="fill:#FFEED4;" points="713.071,186.48 711.206,192.217 705.174,192.217 710.054,195.762 708.19,201.499 
					713.071,197.954 717.951,201.499 716.087,195.762 720.967,192.217 714.935,192.217 				"/>
				<polygon style="fill:#FCBE4F;" points="691.923,186.48 690.059,192.217 684.026,192.217 688.906,195.762 687.042,201.499 
					691.923,197.954 696.803,201.499 694.939,195.762 699.819,192.217 693.787,192.217 				"/>
			</g>
			<g>
				<path style="fill:#FFFFFF;" d="M279.193,181.187h-11.01l13.532,18.283l-23.737-18.283h-80.944c-3.446,0-6.265-2.819-6.265-6.265
					v-18.215c0-3.446,2.819-6.265,6.265-6.265h102.159c3.446,0,6.265,2.819,6.265,6.265v18.215
					C285.458,178.368,282.639,181.187,279.193,181.187z"/>
				<polygon style="fill:#FCBE4F;" points="227.546,157.275 225.682,163.012 219.65,163.012 224.53,166.558 222.666,172.295 
					227.546,168.749 232.426,172.295 230.562,166.558 235.442,163.012 229.41,163.012 				"/>
				<polygon style="fill:#FCBE4F;" points="206.398,157.275 204.534,163.012 198.502,163.012 203.382,166.558 201.518,172.295 
					206.398,168.749 211.278,172.295 209.414,166.558 214.294,163.012 208.262,163.012 				"/>
				<polygon style="fill:#FCBE4F;" points="185.25,157.275 183.386,163.012 177.354,163.012 182.234,166.558 180.37,172.295 
					185.25,168.749 190.13,172.295 188.266,166.558 193.146,163.012 187.114,163.012 				"/>
				<polygon style="fill:#FCBE4F;" points="269.842,157.275 267.978,163.012 261.945,163.012 266.826,166.558 264.962,172.295 
					269.842,168.749 274.722,172.295 272.858,166.558 277.738,163.012 271.706,163.012 				"/>
				<polygon style="fill:#FCBE4F;" points="248.694,157.275 246.83,163.012 240.798,163.012 245.678,166.558 243.814,172.295 
					248.694,168.749 253.574,172.295 251.71,166.558 256.59,163.012 250.558,163.012 				"/>
			</g>
			<g>
				<path style="fill:#FFFFFF;" d="M443.262,83.723h11.01l-11.046,23.941l21.251-23.941h80.944c3.446,0,6.265-2.819,6.265-6.265
					V59.243c0-3.446-2.819-6.265-6.265-6.265H443.262c-3.446,0-6.265,2.819-6.265,6.265v18.215
					C436.997,80.904,439.816,83.723,443.262,83.723z"/>
				<polygon style="fill:#FFEED4;" points="494.909,59.811 493.045,65.548 487.013,65.548 491.893,69.094 490.029,74.831 
					494.909,71.285 499.79,74.831 497.926,69.094 502.806,65.548 496.773,65.548 				"/>
				<polygon style="fill:#FCBE4F;" points="473.761,59.811 471.897,65.548 465.865,65.548 470.745,69.094 468.881,74.831 
					473.761,71.285 478.642,74.831 476.778,69.094 481.658,65.548 475.625,65.548 				"/>
				<polygon style="fill:#FCBE4F;" points="452.613,59.811 450.749,65.548 444.717,65.548 449.597,69.094 447.733,74.831 
					452.613,71.285 457.494,74.831 455.63,69.094 460.51,65.548 454.478,65.548 				"/>
				<polygon style="fill:#FFEED4;" points="537.205,59.811 535.341,65.548 529.309,65.548 534.189,69.094 532.325,74.831 
					537.205,71.285 542.085,74.831 540.221,69.094 545.102,65.548 539.069,65.548 				"/>
				<polygon style="fill:#FFEED4;" points="516.057,59.811 514.193,65.548 508.161,65.548 513.041,69.094 511.177,74.831 
					516.057,71.285 520.938,74.831 519.073,69.094 523.954,65.548 517.921,65.548 				"/>
			</g>
			<g>
				<path style="fill:#FFFFFF;" d="M487.425,194.428h11.01l-24.502,20.231l34.708-20.231h80.944c3.446,0,6.265-2.819,6.265-6.265
					v-18.215c0-3.446-2.819-6.265-6.265-6.265H487.425c-3.446,0-6.265,2.819-6.265,6.265v18.215
					C481.16,191.608,483.98,194.428,487.425,194.428z"/>
				<polygon style="fill:#FCBE4F;" points="539.073,170.515 537.208,176.252 531.176,176.252 536.056,179.798 534.192,185.535 
					539.073,181.989 543.953,185.535 542.089,179.798 546.969,176.252 540.937,176.252 				"/>
				<polygon style="fill:#FCBE4F;" points="517.925,170.515 516.061,176.252 510.028,176.252 514.909,179.798 513.044,185.535 
					517.925,181.989 522.805,185.535 520.941,179.798 525.821,176.252 519.789,176.252 				"/>
				<polygon style="fill:#FCBE4F;" points="496.777,170.515 494.913,176.252 488.88,176.252 493.761,179.798 491.897,185.535 
					496.777,181.989 501.657,185.535 499.793,179.798 504.673,176.252 498.641,176.252 				"/>
				<polygon style="fill:#FFEED4;" points="581.368,170.515 579.504,176.252 573.472,176.252 578.352,179.798 576.488,185.535 
					581.368,181.989 586.249,185.535 584.385,179.798 589.265,176.252 583.232,176.252 				"/>
				<polygon style="fill:#FCBE4F;" points="560.221,170.515 558.356,176.252 552.324,176.252 557.204,179.798 555.34,185.535 
					560.221,181.989 565.101,185.535 563.237,179.798 568.117,176.252 562.085,176.252 				"/>
				<polygon style="fill:#FFEED4;" points="568.117,176.252 562.085,176.252 560.221,170.515 560.22,170.517 560.22,181.99 
					560.221,181.989 565.101,185.535 563.237,179.798 				"/>
			</g>
		</g>
		<g>
			<g>
				
					<rect x="373.911" y="308.504" transform="matrix(-0.8035 -0.5953 0.5953 -0.8035 495.4814 804.0774)" style="fill:#FCBE4F;" width="13.061" height="23.526"/>
				<path style="fill:#0F3554;" d="M381.271,329.669c0.441,0.327,0.43,1.1-0.026,1.748l-33.475,47.594
					c-1.262,1.702-3.24,2.374-4.419,1.5l-9.767-7.236c-1.179-0.874-1.112-2.962,0.149-4.664l35.804-45.869
					c0.488-0.625,1.224-0.861,1.665-0.534L381.271,329.669z"/>
				<path style="fill:#0F3554;" d="M372.676,224.463c-20.813,28.078-14.917,67.707,13.169,88.514
					c28.085,20.807,67.725,14.913,88.538-13.165c20.813-28.078,14.917-67.708-13.169-88.515
					C433.128,190.491,393.488,196.385,372.676,224.463z M384.418,233.163c16.007-21.594,46.493-26.128,68.093-10.125
					c21.6,16.002,26.135,46.481,10.128,68.075c-16.007,21.594-46.493,26.128-68.093,10.125
					C372.946,285.236,368.412,254.757,384.418,233.163z"/>
			</g>
			<path style="fill:#F9AC9A;" d="M233.91,500h84.231l11.851-23.273c21.68-25.126,31.863-46.13,36.492-55.263
				c4.628-9.133,12.403-36.997,12.909-40.242c0.506-3.245-4.466-17.088-4.699-20.225c-0.233-3.137-0.454-14.957-0.454-14.957
				s-1.575-3.79-6.317-2.397c-8.192,2.332-11.118,11.744-11.118,11.744s1.072-10.727,1.384-12.207c0.312-1.48,3.983-11,3.983-11
				l3.615-4.631c0,0-6.082-7.277-13.461-6.612c-11.654,1.253-18.714,13.762-18.714,13.762s-4.121-7.645-15.296-5.443
				c-6,1.312-10.594,14.291-10.594,14.291s-5.874-4.916-11.442-3.874C290.982,340.618,286,350.69,286,350.69
				c-1.908-0.655-4.753-0.55-6.543,0.958c-22.798,21.457-25.331,51.96-21.972,85.093c1.773,11.9,1.257,21.235-3.962,30.455
				L233.91,500z"/>
			<path style="fill:#C66D58;" d="M323.079,371.824l-0.465-0.588c3.393-2.683,4.27-8.404,5.38-15.647
				c0.986-6.43,2.103-13.718,5.274-21.041l0.688,0.299c-3.132,7.234-4.241,14.471-5.22,20.855
				C327.601,363.109,326.704,368.96,323.079,371.824z"/>
			<path style="fill:#C66D58;" d="M299.278,365.206l-0.42-0.621c2.557-1.723,3.777-6.09,5.19-11.146
				c0.878-3.143,1.873-6.704,3.33-10.043l0.688,0.301c-1.437,3.291-2.424,6.825-3.296,9.944
				C303.317,358.84,302.063,363.33,299.278,365.206z"/>
			<path style="fill:#C66D58;" d="M280.333,365.625l-0.561-0.498c1.058-1.192,1.8-3.525,2.659-6.229
				c0.826-2.6,1.763-5.545,3.235-8.382l0.666,0.346c-1.443,2.779-2.369,5.692-3.187,8.263
				C282.262,361.91,281.497,364.315,280.333,365.625z"/>
			<path style="fill:#C66D58;" d="M374.083,362.155c-0.026-0.006-2.655-0.609-4.044-0.515c-0.81,0.056-1.598-0.208-2.19-0.743
				c-0.819-0.739-1.282-1.976-1.339-3.577c-0.076-2.207,0.037-7.611,2.738-10.127c1.134-1.054,2.588-1.497,4.327-1.312l-0.08,0.746
				c-1.513-0.164-2.77,0.215-3.736,1.114c-2.475,2.306-2.572,7.448-2.499,9.553c0.049,1.393,0.426,2.446,1.091,3.046
				c0.566,0.51,1.207,0.583,1.638,0.552c1.498-0.098,4.152,0.506,4.265,0.532L374.083,362.155z"/>
			<path style="fill:#C66D58;" d="M378.329,381.752c-0.021-0.015-2.124-1.518-4.91-2.015l0.131-0.738
				c2.962,0.528,5.128,2.08,5.219,2.146L378.329,381.752z"/>
			<path style="fill:#C66D58;" d="M378.13,379.45c-0.016-0.011-1.658-1.144-4.252-1.534l0.111-0.742
				c2.779,0.419,4.5,1.612,4.572,1.663L378.13,379.45z"/>
			<path style="fill:#C66D58;" d="M377.444,384.241c-0.021-0.016-2.048-1.527-4.778-2.194l0.178-0.729
				c2.887,0.705,4.965,2.258,5.052,2.324L377.444,384.241z"/>
			<path style="fill:#C66D58;" d="M354.769,419.856c-2.249-15.35,1.624-64.011,1.663-64.501l0.748,0.06
				c-0.039,0.488-3.905,49.066-1.669,64.331L354.769,419.856z"/>
			<path style="fill:#C66D58;" d="M355.367,378.954l-0.162-0.732c2.395-0.532,5.53-0.313,5.662-0.302l-0.055,0.748
				C360.78,378.666,357.654,378.446,355.367,378.954z"/>
			<path style="fill:#C66D58;" d="M350.297,335.45c-0.052-0.033-5.248-3.238-13.511-2.519l-0.064-0.748
				c8.537-0.736,13.758,2.495,13.976,2.632L350.297,335.45z"/>
			<path style="fill:#C66D58;" d="M348.072,331.509c-0.043-0.018-4.369-1.796-8.668-1.282l-0.09-0.744
				c4.49-0.545,8.864,1.258,9.047,1.335L348.072,331.509z"/>
			<path style="fill:#C66D58;" d="M345.741,336.572c-0.052-0.014-5.222-1.413-8.082-1.164l-0.066-0.746
				c2.994-0.266,8.13,1.128,8.348,1.188L345.741,336.572z"/>
			<path style="fill:#C66D58;" d="M326.37,332.883c-0.044-0.017-4.42-1.571-10.333-0.65l-0.115-0.74
				c6.117-0.956,10.52,0.618,10.705,0.686L326.37,332.883z"/>
			<polygon style="fill:#FFFFFF;" points="320.48,500 328.229,483.333 254.988,450.054 240.5,479.336 286.987,500 			"/>
			<polygon style="fill:#0F3554;" points="293.601,500 239.253,475.038 224.842,500 			"/>
			<path style="fill:#0F3554;" d="M309.284,496.783c-2.979,0-5.523-2.285-5.787-5.307c-0.136-1.546,0.34-3.053,1.338-4.242
				c0.998-1.19,2.4-1.919,3.947-2.054c3.189-0.273,6.018,2.091,6.297,5.283c0.136,1.546-0.339,3.053-1.338,4.242
				c-0.997,1.189-2.4,1.919-3.946,2.055C309.624,496.775,309.453,496.783,309.284,496.783z M309.292,485.658
				c-0.154,0-0.309,0.007-0.467,0.021c-1.414,0.124-2.695,0.79-3.607,1.877c-0.912,1.087-1.347,2.464-1.223,3.878
				c0.255,2.917,2.818,5.077,5.757,4.829c1.413-0.124,2.694-0.791,3.606-1.878c0.912-1.087,1.347-2.464,1.223-3.878l0,0
				C314.34,487.746,312.015,485.658,309.292,485.658z"/>
		</g>
	</g>
</g>
</svg>
